<?xml version="1.0" standalone="no"?>
<!DOCTYPE svg PUBLIC "-//W3C//DTD SVG 1.1//EN" "http://www.w3.org/Graphics/SVG/1.1/DTD/svg11.dtd" >
<svg xmlns="http://www.w3.org/2000/svg" xmlns:xlink="http://www.w3.org/1999/xlink" version="1.1">
<metadata>
Created by FontForge 20161013 at Sun Apr  6 19:07:50 2014
 By ,,,
Copyright (c) 2014 by Heavyweight All rights reserved.
</metadata>
<defs>
<font id="DanzzaTrial-Medium" horiz-adv-x="638" >
  <font-face 
    font-family="Danzza Trial Medium"
    font-weight="500"
    font-stretch="normal"
    units-per-em="1000"
    panose-1="0 0 6 0 0 0 0 0 0 0"
    ascent="800"
    descent="-200"
    x-height="454"
    cap-height="705"
    bbox="-68 -244.006 971 721.006"
    underline-thickness="68"
    underline-position="-316"
    unicode-range="U+000D-1EF3"
  />
<missing-glyph horiz-adv-x="466" 
 />
    <glyph glyph-name=".notdef" horiz-adv-x="466" 
 />
    <glyph glyph-name=".null" horiz-adv-x="0" 
 />
    <glyph glyph-name="nonmarkingreturn" horiz-adv-x="333" 
 />
    <glyph glyph-name="CR" unicode="&#xd;" horiz-adv-x="600" 
 />
    <glyph glyph-name="space" unicode=" " horiz-adv-x="230" 
 />
    <glyph glyph-name="comma" unicode="," horiz-adv-x="253" 
d="M91 -141h-81l59 284h114z" />
    <glyph glyph-name="hyphen" unicode="-" horiz-adv-x="492" 
d="M412 213h-332v85h332v-85z" />
    <glyph glyph-name="period" unicode="." horiz-adv-x="221" 
d="M110 132q31 0 52.5 -21.5t21.5 -51.5q0 -31 -21.5 -52.5t-52.5 -21.5q-30 0 -51.5 21.5t-21.5 52.5q0 30 21.5 51.5t51.5 21.5z" />
    <glyph glyph-name="zero" unicode="0" horiz-adv-x="621" 
d="M311 720q76 0 131 -34t84 -90.5t42 -117t13 -126.5q0 -52 -7.5 -100.5t-27 -98t-49 -86t-77.5 -59.5t-109 -23t-109.5 23t-78 59.5t-49 86t-27 98t-7.5 100.5q0 66 13 126.5t42 117t84.5 90.5t131.5 34zM311 619q-40 0 -70 -22.5t-47 -61.5t-25 -84.5t-8 -98.5
q0 -52 8 -97.5t25 -84.5t47 -61.5t70 -22.5q53 0 87.5 40.5t48 97.5t13.5 128q0 72 -13.5 129t-48 97.5t-87.5 40.5z" />
    <glyph glyph-name="one" unicode="1" horiz-adv-x="347" 
d="M275 0h-119v569l-124 -83v123l144 96h99v-705z" />
    <glyph glyph-name="two" unicode="2" horiz-adv-x="543" 
d="M276 720q115 0 174.5 -62t59.5 -143q0 -38 -12 -69.5t-41 -62.5t-47.5 -46.5t-62.5 -49.5q-4 -3 -25 -18.5t-26.5 -19.5t-23.5 -18t-24 -20.5t-19.5 -19.5t-19 -21.5t-13.5 -21t-11 -24t-4 -23.5h335v-101h-483q-5 49 6 93t29 76t52 66.5t62 57t73 56.5q3 2 5 3.5t5 3.5
t5 4q70 51 95.5 81.5t25.5 73.5q0 44 -31 74t-85 30q-72 0 -102.5 -51t-8.5 -109l-117 -22q-33 116 35 199.5t194 83.5z" />
    <glyph glyph-name="three" unicode="3" horiz-adv-x="568" 
d="M513 623l-178 -187q94 -15 147 -76.5t53 -141.5q0 -41 -15.5 -81t-45.5 -74.5t-81 -56t-114 -21.5q-109 0 -177.5 64t-76.5 153l115 24q2 -62 40 -101t100 -39q63 0 99.5 38.5t36.5 93.5q0 57 -38 94t-101 37q-26 0 -45 -5l-39 80l171 180h-302v101h451v-82z" />
    <glyph glyph-name="four" unicode="4" horiz-adv-x="589" 
d="M477 256h97v-101h-97v-155h-114v155h-331v99l313 451h132v-449zM152 256h211v301z" />
    <glyph glyph-name="five" unicode="5" horiz-adv-x="570" 
d="M497 604h-312l-24 -190q62 48 148 48q104 0 168 -67t64 -166q0 -100 -69 -172t-190 -72q-108 0 -175 61t-79 146l113 27q4 -57 42 -95t99 -38q63 0 101.5 40t38.5 100q0 61 -36.5 100.5t-98.5 39.5q-82 0 -130 -68l-109 44l48 363h401v-101z" />
    <glyph glyph-name="six" unicode="6" horiz-adv-x="573" 
d="M384 705l-141 -264q28 13 67 13q107 0 171 -68t64 -160q0 -96 -68 -168.5t-184 -72.5q-115 0 -184 71t-69 163q0 52 15.5 94.5t47.5 102.5l153 289h128zM294 359q-61 0 -98 -41t-37 -96t36.5 -95.5t97.5 -40.5q60 0 96.5 40.5t36.5 95.5q0 56 -36 96.5t-96 40.5z" />
    <glyph glyph-name="seven" unicode="7" horiz-adv-x="502" 
d="M497 618l-244 -618h-124l239 604h-249v-85h-114v186h492v-87z" />
    <glyph glyph-name="eight" unicode="8" horiz-adv-x="600" 
d="M300 720q113 0 173.5 -56t60.5 -130q0 -95 -94 -159q121 -61 121 -180q0 -86 -66.5 -148t-194.5 -62t-195 62t-67 148q0 119 122 180q-94 64 -94 159q0 74 60.5 130t173.5 56zM300 619q-52 0 -84.5 -27t-32.5 -69q0 -41 32 -71.5t85 -30.5q52 0 84 30.5t32 71.5
q0 42 -32 69t-84 27zM300 324q-64 0 -103.5 -33t-39.5 -86t38.5 -86t104.5 -33t104 33t38 86t-39 86t-103 33z" />
    <glyph glyph-name="nine" unicode="9" horiz-adv-x="578" 
d="M286 720q115 0 183.5 -70.5t68.5 -163.5q0 -51 -15.5 -94.5t-46.5 -102.5l-157 -289h-127l141 260q-26 -11 -58 -11q-111 0 -176.5 68t-65.5 162q0 96 68.5 168.5t184.5 72.5zM286 619q-61 0 -97.5 -40.5t-36.5 -95.5q0 -56 36 -96.5t97 -40.5q60 0 97 41t37 96
q0 56 -36 96t-97 40z" />
    <glyph glyph-name="A" unicode="A" horiz-adv-x="702" 
d="M702 0h-129l-65 162h-315l-64 -162h-129l301 705h99zM233 263h236l-118 294z" />
    <glyph glyph-name="B" unicode="B" horiz-adv-x="682" 
d="M80 705h299q98 0 156 -51.5t58 -129.5q0 -88 -79 -144q57 -22 93.5 -69t36.5 -108q0 -87 -65.5 -145t-170.5 -58h-328v705zM199 604v-186h174q47 0 75.5 26t28.5 67q0 42 -28.5 67.5t-78.5 25.5h-171zM199 317v-216h197q60 0 94.5 28t34.5 80t-34.5 80t-94.5 28h-197z
" />
    <glyph glyph-name="C" unicode="C" horiz-adv-x="775" 
d="M406 720q117 0 206 -61.5t125 -176.5l-108 -30q-25 78 -84 120t-140 42q-108 0 -177 -73.5t-69 -188.5t69 -188t177 -73q81 0 140 42t84 120l108 -30q-36 -115 -125 -176.5t-206 -61.5q-164 0 -266 107t-102 260q0 154 102 261t266 107z" />
    <glyph glyph-name="D" unicode="D" horiz-adv-x="737" 
d="M80 705h264q108 0 190.5 -50.5t123.5 -129.5t41 -172t-41 -172t-123.5 -130t-190.5 -51h-264v705zM199 604v-503h136q107 0 175 68t68 184t-68 183.5t-175 67.5h-136z" />
    <glyph glyph-name="E" unicode="E" 
d="M582 604h-383v-186h317v-101h-317v-216h383v-101h-502v705h502v-101z" />
    <glyph glyph-name="F" unicode="F" horiz-adv-x="617" 
d="M582 604h-383v-186h317v-101h-317v-317h-119v705h502v-101z" />
    <glyph glyph-name="G" unicode="G" horiz-adv-x="811" 
d="M406 720q108 0 193.5 -53t128.5 -158l-108 -36q-28 69 -84.5 105t-130.5 36q-108 0 -177 -73.5t-69 -188.5t69 -188t176 -73q94 0 154 53t73 137h-259v101h359v-384h-78l-20 91q-39 -52 -100 -78t-130 -26q-162 0 -263.5 107t-101.5 260q0 154 102 261t266 107z" />
    <glyph glyph-name="H" unicode="H" horiz-adv-x="749" 
d="M669 0h-119v309h-351v-309h-119v705h119v-295h351v295h119v-705z" />
    <glyph glyph-name="I" unicode="I" horiz-adv-x="279" 
d="M199 0h-119v705h119v-705z" />
    <glyph glyph-name="J" unicode="J" horiz-adv-x="363" 
d="M293 705v-542q0 -102 -76.5 -152.5t-186.5 -4.5l24 91q52 -18 86 1.5t34 70.5v435h-115v101h234z" />
    <glyph glyph-name="K" unicode="K" horiz-adv-x="690" 
d="M376 424l299 -424h-143l-237 336l-96 -103v-233h-119v705h119v-309l287 309h148z" />
    <glyph glyph-name="L" unicode="L" horiz-adv-x="567" 
d="M199 101h343v-101h-462v705h119v-604z" />
    <glyph glyph-name="M" unicode="M" horiz-adv-x="913" 
d="M833 0h-119v443l-231 -443h-53l-231 443v-443h-119v705h101l276 -527l276 527h100v-705z" />
    <glyph glyph-name="N" unicode="N" horiz-adv-x="756" 
d="M676 0h-101l-376 498v-498h-119v705h101l376 -498v498h119v-705z" />
    <glyph glyph-name="O" unicode="O" horiz-adv-x="817" 
d="M408 720q164 0 267 -107t103 -261q0 -153 -103 -260t-267 -107q-163 0 -266.5 107t-103.5 260t103.5 260.5t266.5 107.5zM408 614q-108 0 -178.5 -73.5t-70.5 -188.5q0 -114 70.5 -187.5t178.5 -73.5t179 73.5t71 187.5q0 115 -70.5 188.5t-179.5 73.5z" />
    <glyph glyph-name="P" unicode="P" horiz-adv-x="704" 
d="M80 705h361q109 0 167 -57.5t58 -142.5t-58 -142.5t-167 -57.5h-242v-305h-119v705zM199 604v-198h237q53 0 82 27.5t29 71.5q0 45 -29 72t-82 27h-237z" />
    <glyph glyph-name="Q" unicode="Q" horiz-adv-x="817" 
d="M408 720q164 0 267 -107t103 -261q0 -162 -112 -268l80 -112l-82 -60l-82 113q-77 -40 -174 -40q-163 0 -266.5 107t-103.5 260t103.5 260.5t266.5 107.5zM408 614q-108 0 -178.5 -73.5t-70.5 -188.5q0 -114 70.5 -187.5t178.5 -73.5q62 0 109 25l-170 235h126l123 -171
q62 72 62 172q0 115 -70.5 188.5t-179.5 73.5z" />
    <glyph glyph-name="R" unicode="R" horiz-adv-x="726" 
d="M80 705h307q108 0 166 -57.5t58 -142.5q0 -64 -35.5 -110.5t-103.5 -69.5l215 -325h-138l-202 305h-148v-305h-119v705zM199 604v-198h183q52 0 81 27.5t29 71.5q0 45 -29 72t-81 27h-183z" />
    <glyph glyph-name="S" unicode="S" 
d="M318 720q93 0 165.5 -46t108.5 -133l-104 -37q-51 115 -173 115q-55 0 -90 -25t-35 -65q0 -32 23 -53.5t60 -33.5t81.5 -22.5t89 -26t81.5 -37t60 -62t23 -96.5q0 -96 -77 -154.5t-192 -58.5q-48 0 -92 10.5t-87 34t-77 67t-53 103.5l106 37q23 -76 78 -113.5t129 -37.5
q63 0 104.5 29t41.5 77q0 36 -23 60.5t-60 38t-81.5 25t-88.5 26t-81 35.5t-60 59.5t-23 92.5q0 81 70 136t176 55z" />
    <glyph glyph-name="T" unicode="T" horiz-adv-x="557" 
d="M541 604h-203v-604h-119v604h-202v101h524v-101z" />
    <glyph glyph-name="U" unicode="U" horiz-adv-x="753" 
d="M673 705v-437q0 -52 -16 -100t-49.5 -90.5t-93 -67.5t-138.5 -25q-63 0 -114.5 17t-84.5 44.5t-55.5 65t-32 76.5t-9.5 80v437h119v-428q0 -88 44.5 -139.5t132.5 -51.5q89 0 133.5 51.5t44.5 139.5v428h119z" />
    <glyph glyph-name="V" unicode="V" horiz-adv-x="705" 
d="M402 0h-99l-293 705h129l214 -530l213 530h129z" />
    <glyph glyph-name="W" unicode="W" horiz-adv-x="981" 
d="M734 0h-100l-143 438l-144 -438h-100l-237 705h126l164 -496l166 496h49l166 -496l164 496h126z" />
    <glyph glyph-name="X" unicode="X" horiz-adv-x="712" 
d="M428 366l274 -366h-143l-203 268l-203 -268h-143l275 366l-255 339h144l182 -241l183 241h144z" />
    <glyph glyph-name="Y" unicode="Y" horiz-adv-x="696" 
d="M408 302v-302h-119v302l-279 403h143l195 -289l196 289h142z" />
    <glyph glyph-name="Z" unicode="Z" 
d="M579 619l-388 -518h403v-101h-556v86l388 518h-375v101h528v-86z" />
    <glyph glyph-name="a" unicode="a" horiz-adv-x="597" 
d="M264 469q43 0 86.5 -19.5t72.5 -56.5l16 61h87v-454h-87l-16 60q-29 -36 -72.5 -55.5t-86.5 -19.5q-99 0 -165 70t-66 172q0 101 66 171.5t165 70.5zM281 373q-59 0 -96 -42t-37 -104t36.5 -104t96.5 -42q58 0 94.5 41.5t36.5 104.5q0 62 -36.5 104t-94.5 42z" />
    <glyph glyph-name="b" unicode="b" horiz-adv-x="596" 
d="M184 705v-300q62 64 150 64q98 0 163 -69.5t65 -172.5t-65 -172.5t-163 -69.5q-44 0 -88 19t-73 56l-16 -60h-87v705h114zM318 373q-59 0 -96.5 -42t-37.5 -104q0 -63 37.5 -104.5t96.5 -41.5q58 0 94 42t36 104q0 61 -36 103.5t-94 42.5z" />
    <glyph glyph-name="c" unicode="c" horiz-adv-x="536" 
d="M281 469q79 0 139 -43t83 -121l-106 -24q-12 42 -42.5 67t-75.5 25q-55 0 -93 -39t-38 -107t38 -107t93 -39q45 0 75.5 24.5t42.5 66.5l106 -23q-23 -78 -83 -121t-139 -43q-109 0 -178.5 70.5t-69.5 171.5t69.5 171.5t178.5 70.5z" />
    <glyph glyph-name="d" unicode="d" horiz-adv-x="596" 
d="M526 0h-87l-16 60q-29 -36 -72.5 -55.5t-86.5 -19.5q-99 0 -165 70t-66 172q0 101 66 171.5t165 70.5q40 0 80 -16.5t68 -47.5v300h114v-705zM281 373q-60 0 -96.5 -42.5t-36.5 -103.5t36.5 -103.5t96.5 -42.5q59 0 95 42t36 104q0 61 -36.5 103.5t-94.5 42.5z" />
    <glyph glyph-name="e" unicode="e" horiz-adv-x="546" 
d="M283 469q89 0 159 -64t70 -179l-1 -25h-362q4 -57 41 -90.5t89 -33.5q81 0 119 76l93 -45q-30 -58 -85.5 -90.5t-121.5 -32.5q-111 0 -181 70.5t-70 171.5t70.5 171.5t179.5 70.5zM280 383q-49 0 -83.5 -30.5t-40.5 -76.5h241q-5 48 -37 77.5t-80 29.5z" />
    <glyph glyph-name="f" unicode="f" horiz-adv-x="409" 
d="M399 688l-35 -92l-32 12q-41 15 -68.5 -3.5t-27.5 -56.5v-94h154v-96h-154v-358h-114v358h-112v96h112v96q0 104 73.5 147.5t164.5 6.5z" />
    <glyph glyph-name="g" unicode="g" horiz-adv-x="593" 
d="M265 469q44 0 87 -19t72 -55l16 59h87v-448q0 -103 -64 -175.5t-188 -72.5q-98 0 -165 54.5t-77 155.5l107 18q3 -64 41 -98t97 -34q70 0 102 41t32 97v78q-59 -61 -147 -61q-99 0 -164.5 65.5t-65.5 164.5t65.5 164.5t164.5 65.5zM282 373q-59 0 -96 -38t-37 -96
q0 -57 37.5 -95.5t95.5 -38.5q57 0 94 38.5t37 95.5q0 58 -37 96t-94 38z" />
    <glyph glyph-name="h" unicode="h" horiz-adv-x="607" 
d="M184 705v-302q64 66 159 66q90 0 145.5 -58.5t55.5 -151.5v-259h-114v247q0 58 -30 92t-84 34t-93 -39t-39 -101v-233h-114v705h114z" />
    <glyph glyph-name="i" unicode="i" horiz-adv-x="273" 
d="M138 657q28 0 48 -19.5t20 -48.5t-19.5 -48.5t-48.5 -19.5t-48.5 19.5t-19.5 48.5t19.5 48.5t48.5 19.5zM196 0h-114v454h114v-454z" />
    <glyph glyph-name="j" unicode="j" horiz-adv-x="282" 
d="M150 657q29 0 49 -19.5t20 -48.5t-20 -48.5t-49 -19.5t-48 19.5t-19 48.5t19.5 48.5t47.5 19.5zM208 454v-527q0 -104 -73.5 -147.5t-164.5 -6.5l-38 16l34 92l32 -12q41 -15 68.5 3.5t27.5 56.5v525h114z" />
    <glyph glyph-name="k" unicode="k" horiz-adv-x="562" 
d="M184 255l196 199h134l-172 -180l213 -274h-132l-155 196l-84 -84v-112h-114v705h114v-450z" />
    <glyph glyph-name="l" unicode="l" horiz-adv-x="254" 
d="M184 0h-114v705h114v-705z" />
    <glyph glyph-name="m" unicode="m" horiz-adv-x="908" 
d="M660 469q86 0 135.5 -54t49.5 -148v-267h-114v261q0 54 -25.5 83t-73.5 29q-49 0 -83.5 -35.5t-34.5 -94.5v-243h-114v261q0 54 -25 83t-73 29q-49 0 -83.5 -35.5t-34.5 -94.5v-243h-114v454h87l16 -59q66 74 158 74q55 0 95.5 -25t61.5 -67q31 43 78 67.5t94 24.5z" />
    <glyph glyph-name="n" unicode="n" horiz-adv-x="607" 
d="M343 469q90 0 145.5 -58.5t55.5 -151.5v-259h-114v247q0 58 -30 92t-84 34t-93 -39t-39 -101v-233h-114v454h87l16 -61q71 76 170 76z" />
    <glyph glyph-name="o" unicode="o" horiz-adv-x="563" 
d="M282 469q110 0 179 -70t69 -172q0 -103 -69 -172.5t-179 -69.5t-179.5 69.5t-69.5 172.5q0 102 69.5 172t179.5 70zM282 373q-59 0 -96.5 -41.5t-37.5 -104.5t37.5 -104.5t96.5 -41.5q58 0 95.5 41.5t37.5 104.5t-37.5 104.5t-95.5 41.5z" />
    <glyph glyph-name="p" unicode="p" horiz-adv-x="596" 
d="M334 469q98 0 163 -69.5t65 -172.5t-65 -172.5t-163 -69.5q-89 0 -150 64v-264h-114v669h87l16 -61q29 37 73 56.5t88 19.5zM318 373q-59 0 -96.5 -42t-37.5 -104t37.5 -104t96.5 -42q58 0 94 42t36 104t-36 104t-94 42z" />
    <glyph glyph-name="q" unicode="q" horiz-adv-x="592" 
d="M264 469q43 0 86.5 -19.5t72.5 -56.5l16 61h87v-669h-114v264q-28 -31 -68 -47.5t-80 -16.5q-99 0 -165 70t-66 172t66 172t165 70zM281 373q-60 0 -96.5 -42.5t-36.5 -103.5t36.5 -103.5t96.5 -42.5q59 0 95 42t36 104t-36 104t-95 42z" />
    <glyph glyph-name="r" unicode="r" horiz-adv-x="408" 
d="M388 452l-35 -96q-68 29 -118.5 -5.5t-50.5 -106.5v-244h-114v454h87l16 -57q35 49 94.5 64.5t120.5 -9.5z" />
    <glyph glyph-name="s" unicode="s" horiz-adv-x="462" 
d="M234 469q67 0 118.5 -28.5t80.5 -79.5l-86 -36q-17 30 -46.5 49t-64.5 19q-30 0 -51 -12t-21 -32q0 -24 26 -37t83 -28q88 -24 128.5 -59.5t40.5 -97.5q0 -59 -54 -100.5t-141 -41.5q-70 0 -130.5 34t-88.5 98l90 38q17 -39 52 -64.5t80 -25.5q34 0 56 15t22 39
q0 29 -24 44t-80 29q-83 22 -126.5 57.5t-43.5 91.5q0 55 50 91.5t130 36.5z" />
    <glyph glyph-name="t" unicode="t" horiz-adv-x="440" 
d="M240 454h158v-96h-158v-200q0 -38 27.5 -56.5t68.5 -4.5l32 12l34 -92l-38 -15q-92 -38 -165 5.5t-73 147.5v203h-113v96h113v144h114v-144z" />
    <glyph glyph-name="u" unicode="u" horiz-adv-x="614" 
d="M544 0h-87l-16 60q-72 -75 -171 -75q-89 0 -144.5 58.5t-55.5 150.5v260h114v-248q0 -58 30 -91.5t84 -33.5t93 39t39 100v234h114v-454z" />
    <glyph glyph-name="v" unicode="v" horiz-adv-x="535" 
d="M311 0h-87l-214 454h125l132 -302l133 302h125z" />
    <glyph glyph-name="w" unicode="w" horiz-adv-x="738" 
d="M562 0h-93l-100 275l-100 -275h-93l-166 454h115l104 -285l104 285h73l104 -285l104 285h114z" />
    <glyph glyph-name="x" unicode="x" horiz-adv-x="499" 
d="M314 232l175 -232h-129l-111 144l-110 -144h-129l175 231l-167 223h128l104 -134l103 134h128z" />
    <glyph glyph-name="y" unicode="y" horiz-adv-x="547" 
d="M220 -215h-119l119 254l-210 415h126l145 -298l134 298h122z" />
    <glyph glyph-name="z" unicode="z" horiz-adv-x="470" 
d="M436 381l-259 -285h273v-96h-430v74l259 284h-245v96h402v-73z" />
    <glyph glyph-name="uni00A0" unicode="&#xa0;" horiz-adv-x="230" 
 />
    <glyph glyph-name="Agrave" unicode="&#xc0;" horiz-adv-x="702" 
d="M702 0h-129l-65 162h-315l-64 -162h-129l301 705h99zM233 263h236l-118 294z" />
    <glyph glyph-name="Aacute" unicode="&#xc1;" horiz-adv-x="702" 
d="M702 0h-129l-65 162h-315l-64 -162h-129l301 705h99zM233 263h236l-118 294z" />
    <glyph glyph-name="Acircumflex" unicode="&#xc2;" horiz-adv-x="702" 
d="M702 0h-129l-65 162h-315l-64 -162h-129l301 705h99zM233 263h236l-118 294z" />
    <glyph glyph-name="Atilde" unicode="&#xc3;" horiz-adv-x="702" 
d="M702 0h-129l-65 162h-315l-64 -162h-129l301 705h99zM233 263h236l-118 294z" />
    <glyph glyph-name="Adieresis" unicode="&#xc4;" horiz-adv-x="702" 
d="M702 0h-129l-65 162h-315l-64 -162h-129l301 705h99zM233 263h236l-118 294z" />
    <glyph glyph-name="Aring" unicode="&#xc5;" horiz-adv-x="702" 
d="M702 0h-129l-65 162h-315l-64 -162h-129l301 705h99zM233 263h236l-118 294z" />
    <glyph glyph-name="Ccedilla" unicode="&#xc7;" horiz-adv-x="775" 
d="M406 720q117 0 206 -61.5t125 -176.5l-108 -30q-25 78 -84 120t-140 42q-108 0 -177 -73.5t-69 -188.5t69 -188t177 -73q81 0 140 42t84 120l108 -30q-36 -115 -125 -176.5t-206 -61.5q-164 0 -266 107t-102 260q0 154 102 261t266 107z" />
    <glyph glyph-name="Egrave" unicode="&#xc8;" 
d="M582 604h-383v-186h317v-101h-317v-216h383v-101h-502v705h502v-101z" />
    <glyph glyph-name="Eacute" unicode="&#xc9;" 
d="M582 604h-383v-186h317v-101h-317v-216h383v-101h-502v705h502v-101z" />
    <glyph glyph-name="Ecircumflex" unicode="&#xca;" 
d="M582 604h-383v-186h317v-101h-317v-216h383v-101h-502v705h502v-101z" />
    <glyph glyph-name="Edieresis" unicode="&#xcb;" 
d="M582 604h-383v-186h317v-101h-317v-216h383v-101h-502v705h502v-101z" />
    <glyph glyph-name="Igrave" unicode="&#xcc;" horiz-adv-x="279" 
d="M199 0h-119v705h119v-705z" />
    <glyph glyph-name="Iacute" unicode="&#xcd;" horiz-adv-x="279" 
d="M199 0h-119v705h119v-705z" />
    <glyph glyph-name="Icircumflex" unicode="&#xce;" horiz-adv-x="279" 
d="M199 0h-119v705h119v-705z" />
    <glyph glyph-name="Idieresis" unicode="&#xcf;" horiz-adv-x="279" 
d="M199 0h-119v705h119v-705z" />
    <glyph glyph-name="Ntilde" unicode="&#xd1;" horiz-adv-x="756" 
d="M676 0h-101l-376 498v-498h-119v705h101l376 -498v498h119v-705z" />
    <glyph glyph-name="Ograve" unicode="&#xd2;" horiz-adv-x="817" 
d="M408 720q164 0 267 -107t103 -261q0 -153 -103 -260t-267 -107q-163 0 -266.5 107t-103.5 260t103.5 260.5t266.5 107.5zM408 614q-108 0 -178.5 -73.5t-70.5 -188.5q0 -114 70.5 -187.5t178.5 -73.5t179 73.5t71 187.5q0 115 -70.5 188.5t-179.5 73.5z" />
    <glyph glyph-name="Oacute" unicode="&#xd3;" horiz-adv-x="817" 
d="M408 720q164 0 267 -107t103 -261q0 -153 -103 -260t-267 -107q-163 0 -266.5 107t-103.5 260t103.5 260.5t266.5 107.5zM408 614q-108 0 -178.5 -73.5t-70.5 -188.5q0 -114 70.5 -187.5t178.5 -73.5t179 73.5t71 187.5q0 115 -70.5 188.5t-179.5 73.5z" />
    <glyph glyph-name="Ocircumflex" unicode="&#xd4;" horiz-adv-x="817" 
d="M408 720q164 0 267 -107t103 -261q0 -153 -103 -260t-267 -107q-163 0 -266.5 107t-103.5 260t103.5 260.5t266.5 107.5zM408 614q-108 0 -178.5 -73.5t-70.5 -188.5q0 -114 70.5 -187.5t178.5 -73.5t179 73.5t71 187.5q0 115 -70.5 188.5t-179.5 73.5z" />
    <glyph glyph-name="Otilde" unicode="&#xd5;" horiz-adv-x="817" 
d="M408 720q164 0 267 -107t103 -261q0 -153 -103 -260t-267 -107q-163 0 -266.5 107t-103.5 260t103.5 260.5t266.5 107.5zM408 614q-108 0 -178.5 -73.5t-70.5 -188.5q0 -114 70.5 -187.5t178.5 -73.5t179 73.5t71 187.5q0 115 -70.5 188.5t-179.5 73.5z" />
    <glyph glyph-name="Odieresis" unicode="&#xd6;" horiz-adv-x="817" 
d="M408 720q164 0 267 -107t103 -261q0 -153 -103 -260t-267 -107q-163 0 -266.5 107t-103.5 260t103.5 260.5t266.5 107.5zM408 614q-108 0 -178.5 -73.5t-70.5 -188.5q0 -114 70.5 -187.5t178.5 -73.5t179 73.5t71 187.5q0 115 -70.5 188.5t-179.5 73.5z" />
    <glyph glyph-name="Oslash" unicode="&#xd8;" horiz-adv-x="817" 
d="M408 720q164 0 267 -107t103 -261q0 -153 -103 -260t-267 -107q-163 0 -266.5 107t-103.5 260t103.5 260.5t266.5 107.5zM408 614q-108 0 -178.5 -73.5t-70.5 -188.5q0 -114 70.5 -187.5t178.5 -73.5t179 73.5t71 187.5q0 115 -70.5 188.5t-179.5 73.5z" />
    <glyph glyph-name="Ugrave" unicode="&#xd9;" horiz-adv-x="753" 
d="M673 705v-437q0 -52 -16 -100t-49.5 -90.5t-93 -67.5t-138.5 -25q-63 0 -114.5 17t-84.5 44.5t-55.5 65t-32 76.5t-9.5 80v437h119v-428q0 -88 44.5 -139.5t132.5 -51.5q89 0 133.5 51.5t44.5 139.5v428h119z" />
    <glyph glyph-name="Uacute" unicode="&#xda;" horiz-adv-x="753" 
d="M673 705v-437q0 -52 -16 -100t-49.5 -90.5t-93 -67.5t-138.5 -25q-63 0 -114.5 17t-84.5 44.5t-55.5 65t-32 76.5t-9.5 80v437h119v-428q0 -88 44.5 -139.5t132.5 -51.5q89 0 133.5 51.5t44.5 139.5v428h119z" />
    <glyph glyph-name="Ucircumflex" unicode="&#xdb;" horiz-adv-x="753" 
d="M673 705v-437q0 -52 -16 -100t-49.5 -90.5t-93 -67.5t-138.5 -25q-63 0 -114.5 17t-84.5 44.5t-55.5 65t-32 76.5t-9.5 80v437h119v-428q0 -88 44.5 -139.5t132.5 -51.5q89 0 133.5 51.5t44.5 139.5v428h119z" />
    <glyph glyph-name="Udieresis" unicode="&#xdc;" horiz-adv-x="753" 
d="M673 705v-437q0 -52 -16 -100t-49.5 -90.5t-93 -67.5t-138.5 -25q-63 0 -114.5 17t-84.5 44.5t-55.5 65t-32 76.5t-9.5 80v437h119v-428q0 -88 44.5 -139.5t132.5 -51.5q89 0 133.5 51.5t44.5 139.5v428h119z" />
    <glyph glyph-name="Yacute" unicode="&#xdd;" horiz-adv-x="696" 
d="M408 302v-302h-119v302l-279 403h143l195 -289l196 289h142z" />
    <glyph glyph-name="agrave" unicode="&#xe0;" horiz-adv-x="597" 
d="M264 469q43 0 86.5 -19.5t72.5 -56.5l16 61h87v-454h-87l-16 60q-29 -36 -72.5 -55.5t-86.5 -19.5q-99 0 -165 70t-66 172q0 101 66 171.5t165 70.5zM281 373q-59 0 -96 -42t-37 -104t36.5 -104t96.5 -42q58 0 94.5 41.5t36.5 104.5q0 62 -36.5 104t-94.5 42z" />
    <glyph glyph-name="aacute" unicode="&#xe1;" horiz-adv-x="597" 
d="M264 469q43 0 86.5 -19.5t72.5 -56.5l16 61h87v-454h-87l-16 60q-29 -36 -72.5 -55.5t-86.5 -19.5q-99 0 -165 70t-66 172q0 101 66 171.5t165 70.5zM281 373q-59 0 -96 -42t-37 -104t36.5 -104t96.5 -42q58 0 94.5 41.5t36.5 104.5q0 62 -36.5 104t-94.5 42z" />
    <glyph glyph-name="acircumflex" unicode="&#xe2;" horiz-adv-x="597" 
d="M264 469q43 0 86.5 -19.5t72.5 -56.5l16 61h87v-454h-87l-16 60q-29 -36 -72.5 -55.5t-86.5 -19.5q-99 0 -165 70t-66 172q0 101 66 171.5t165 70.5zM281 373q-59 0 -96 -42t-37 -104t36.5 -104t96.5 -42q58 0 94.5 41.5t36.5 104.5q0 62 -36.5 104t-94.5 42z" />
    <glyph glyph-name="atilde" unicode="&#xe3;" horiz-adv-x="597" 
d="M264 469q43 0 86.5 -19.5t72.5 -56.5l16 61h87v-454h-87l-16 60q-29 -36 -72.5 -55.5t-86.5 -19.5q-99 0 -165 70t-66 172q0 101 66 171.5t165 70.5zM281 373q-59 0 -96 -42t-37 -104t36.5 -104t96.5 -42q58 0 94.5 41.5t36.5 104.5q0 62 -36.5 104t-94.5 42z" />
    <glyph glyph-name="adieresis" unicode="&#xe4;" horiz-adv-x="597" 
d="M264 469q43 0 86.5 -19.5t72.5 -56.5l16 61h87v-454h-87l-16 60q-29 -36 -72.5 -55.5t-86.5 -19.5q-99 0 -165 70t-66 172q0 101 66 171.5t165 70.5zM281 373q-59 0 -96 -42t-37 -104t36.5 -104t96.5 -42q58 0 94.5 41.5t36.5 104.5q0 62 -36.5 104t-94.5 42z" />
    <glyph glyph-name="aring" unicode="&#xe5;" horiz-adv-x="597" 
d="M264 469q43 0 86.5 -19.5t72.5 -56.5l16 61h87v-454h-87l-16 60q-29 -36 -72.5 -55.5t-86.5 -19.5q-99 0 -165 70t-66 172q0 101 66 171.5t165 70.5zM281 373q-59 0 -96 -42t-37 -104t36.5 -104t96.5 -42q58 0 94.5 41.5t36.5 104.5q0 62 -36.5 104t-94.5 42z" />
    <glyph glyph-name="ccedilla" unicode="&#xe7;" horiz-adv-x="536" 
d="M281 469q79 0 139 -43t83 -121l-106 -24q-12 42 -42.5 67t-75.5 25q-55 0 -93 -39t-38 -107t38 -107t93 -39q45 0 75.5 24.5t42.5 66.5l106 -23q-23 -78 -83 -121t-139 -43q-109 0 -178.5 70.5t-69.5 171.5t69.5 171.5t178.5 70.5z" />
    <glyph glyph-name="egrave" unicode="&#xe8;" horiz-adv-x="546" 
d="M283 469q89 0 159 -64t70 -179l-1 -25h-362q4 -57 41 -90.5t89 -33.5q81 0 119 76l93 -45q-30 -58 -85.5 -90.5t-121.5 -32.5q-111 0 -181 70.5t-70 171.5t70.5 171.5t179.5 70.5zM280 383q-49 0 -83.5 -30.5t-40.5 -76.5h241q-5 48 -37 77.5t-80 29.5z" />
    <glyph glyph-name="eacute" unicode="&#xe9;" horiz-adv-x="546" 
d="M283 469q89 0 159 -64t70 -179l-1 -25h-362q4 -57 41 -90.5t89 -33.5q81 0 119 76l93 -45q-30 -58 -85.5 -90.5t-121.5 -32.5q-111 0 -181 70.5t-70 171.5t70.5 171.5t179.5 70.5zM280 383q-49 0 -83.5 -30.5t-40.5 -76.5h241q-5 48 -37 77.5t-80 29.5z" />
    <glyph glyph-name="ecircumflex" unicode="&#xea;" horiz-adv-x="546" 
d="M283 469q89 0 159 -64t70 -179l-1 -25h-362q4 -57 41 -90.5t89 -33.5q81 0 119 76l93 -45q-30 -58 -85.5 -90.5t-121.5 -32.5q-111 0 -181 70.5t-70 171.5t70.5 171.5t179.5 70.5zM280 383q-49 0 -83.5 -30.5t-40.5 -76.5h241q-5 48 -37 77.5t-80 29.5z" />
    <glyph glyph-name="edieresis" unicode="&#xeb;" horiz-adv-x="546" 
d="M283 469q89 0 159 -64t70 -179l-1 -25h-362q4 -57 41 -90.5t89 -33.5q81 0 119 76l93 -45q-30 -58 -85.5 -90.5t-121.5 -32.5q-111 0 -181 70.5t-70 171.5t70.5 171.5t179.5 70.5zM280 383q-49 0 -83.5 -30.5t-40.5 -76.5h241q-5 48 -37 77.5t-80 29.5z" />
    <glyph glyph-name="igrave" unicode="&#xec;" horiz-adv-x="254" 
d="M184 0h-114v454h114v-454z" />
    <glyph glyph-name="iacute" unicode="&#xed;" horiz-adv-x="254" 
d="M184 0h-114v454h114v-454z" />
    <glyph glyph-name="icircumflex" unicode="&#xee;" horiz-adv-x="254" 
d="M184 0h-114v454h114v-454z" />
    <glyph glyph-name="idieresis" unicode="&#xef;" horiz-adv-x="254" 
d="M184 0h-114v454h114v-454z" />
    <glyph glyph-name="ntilde" unicode="&#xf1;" horiz-adv-x="607" 
d="M343 469q90 0 145.5 -58.5t55.5 -151.5v-259h-114v247q0 58 -30 92t-84 34t-93 -39t-39 -101v-233h-114v454h87l16 -61q71 76 170 76z" />
    <glyph glyph-name="ograve" unicode="&#xf2;" horiz-adv-x="563" 
d="M282 469q110 0 179 -70t69 -172q0 -103 -69 -172.5t-179 -69.5t-179.5 69.5t-69.5 172.5q0 102 69.5 172t179.5 70zM282 373q-59 0 -96.5 -41.5t-37.5 -104.5t37.5 -104.5t96.5 -41.5q58 0 95.5 41.5t37.5 104.5t-37.5 104.5t-95.5 41.5z" />
    <glyph glyph-name="oacute" unicode="&#xf3;" horiz-adv-x="563" 
d="M282 469q110 0 179 -70t69 -172q0 -103 -69 -172.5t-179 -69.5t-179.5 69.5t-69.5 172.5q0 102 69.5 172t179.5 70zM282 373q-59 0 -96.5 -41.5t-37.5 -104.5t37.5 -104.5t96.5 -41.5q58 0 95.5 41.5t37.5 104.5t-37.5 104.5t-95.5 41.5z" />
    <glyph glyph-name="ocircumflex" unicode="&#xf4;" horiz-adv-x="563" 
d="M282 469q110 0 179 -70t69 -172q0 -103 -69 -172.5t-179 -69.5t-179.5 69.5t-69.5 172.5q0 102 69.5 172t179.5 70zM282 373q-59 0 -96.5 -41.5t-37.5 -104.5t37.5 -104.5t96.5 -41.5q58 0 95.5 41.5t37.5 104.5t-37.5 104.5t-95.5 41.5z" />
    <glyph glyph-name="otilde" unicode="&#xf5;" horiz-adv-x="563" 
d="M282 469q110 0 179 -70t69 -172q0 -103 -69 -172.5t-179 -69.5t-179.5 69.5t-69.5 172.5q0 102 69.5 172t179.5 70zM282 373q-59 0 -96.5 -41.5t-37.5 -104.5t37.5 -104.5t96.5 -41.5q58 0 95.5 41.5t37.5 104.5t-37.5 104.5t-95.5 41.5z" />
    <glyph glyph-name="odieresis" unicode="&#xf6;" horiz-adv-x="563" 
d="M282 469q110 0 179 -70t69 -172q0 -103 -69 -172.5t-179 -69.5t-179.5 69.5t-69.5 172.5q0 102 69.5 172t179.5 70zM282 373q-59 0 -96.5 -41.5t-37.5 -104.5t37.5 -104.5t96.5 -41.5q58 0 95.5 41.5t37.5 104.5t-37.5 104.5t-95.5 41.5z" />
    <glyph glyph-name="oslash" unicode="&#xf8;" horiz-adv-x="563" 
d="M91 151q35 0 57 -22.5t22 -55.5t-22 -55.5t-57 -22.5q-36 0 -58 22.5t-22 55.5t22 55.5t58 22.5zM91 120q-19 0 -31 -13t-12 -34t12 -34t31 -13t30.5 13.5t11.5 33.5t-11.5 33.5t-30.5 13.5z" />
    <glyph glyph-name="ugrave" unicode="&#xf9;" horiz-adv-x="614" 
d="M544 0h-87l-16 60q-72 -75 -171 -75q-89 0 -144.5 58.5t-55.5 150.5v260h114v-248q0 -58 30 -91.5t84 -33.5t93 39t39 100v234h114v-454z" />
    <glyph glyph-name="uacute" unicode="&#xfa;" horiz-adv-x="614" 
d="M544 0h-87l-16 60q-72 -75 -171 -75q-89 0 -144.5 58.5t-55.5 150.5v260h114v-248q0 -58 30 -91.5t84 -33.5t93 39t39 100v234h114v-454z" />
    <glyph glyph-name="ucircumflex" unicode="&#xfb;" horiz-adv-x="614" 
d="M544 0h-87l-16 60q-72 -75 -171 -75q-89 0 -144.5 58.5t-55.5 150.5v260h114v-248q0 -58 30 -91.5t84 -33.5t93 39t39 100v234h114v-454z" />
    <glyph glyph-name="udieresis" unicode="&#xfc;" horiz-adv-x="614" 
d="M544 0h-87l-16 60q-72 -75 -171 -75q-89 0 -144.5 58.5t-55.5 150.5v260h114v-248q0 -58 30 -91.5t84 -33.5t93 39t39 100v234h114v-454z" />
    <glyph glyph-name="yacute" unicode="&#xfd;" horiz-adv-x="547" 
d="M220 -215h-119l119 254l-210 415h126l145 -298l134 298h122z" />
    <glyph glyph-name="ydieresis" unicode="&#xff;" horiz-adv-x="547" 
d="M220 -215h-119l119 254l-210 415h126l145 -298l134 298h122z" />
    <glyph glyph-name="Amacron" unicode="&#x100;" horiz-adv-x="702" 
d="M702 0h-129l-65 162h-315l-64 -162h-129l301 705h99zM233 263h236l-118 294z" />
    <glyph glyph-name="amacron" unicode="&#x101;" horiz-adv-x="597" 
d="M264 469q43 0 86.5 -19.5t72.5 -56.5l16 61h87v-454h-87l-16 60q-29 -36 -72.5 -55.5t-86.5 -19.5q-99 0 -165 70t-66 172q0 101 66 171.5t165 70.5zM281 373q-59 0 -96 -42t-37 -104t36.5 -104t96.5 -42q58 0 94.5 41.5t36.5 104.5q0 62 -36.5 104t-94.5 42z" />
    <glyph glyph-name="Abreve" unicode="&#x102;" horiz-adv-x="702" 
d="M702 0h-129l-65 162h-315l-64 -162h-129l301 705h99zM233 263h236l-118 294z" />
    <glyph glyph-name="abreve" unicode="&#x103;" horiz-adv-x="597" 
d="M264 469q43 0 86.5 -19.5t72.5 -56.5l16 61h87v-454h-87l-16 60q-29 -36 -72.5 -55.5t-86.5 -19.5q-99 0 -165 70t-66 172q0 101 66 171.5t165 70.5zM281 373q-59 0 -96 -42t-37 -104t36.5 -104t96.5 -42q58 0 94.5 41.5t36.5 104.5q0 62 -36.5 104t-94.5 42z" />
    <glyph glyph-name="Aogonek" unicode="&#x104;" horiz-adv-x="702" 
d="M702 0h-129l-65 162h-315l-64 -162h-129l301 705h99zM233 263h236l-118 294z" />
    <glyph glyph-name="aogonek" unicode="&#x105;" horiz-adv-x="597" 
d="M264 469q43 0 86.5 -19.5t72.5 -56.5l16 61h87v-454h-87l-16 60q-29 -36 -72.5 -55.5t-86.5 -19.5q-99 0 -165 70t-66 172q0 101 66 171.5t165 70.5zM281 373q-59 0 -96 -42t-37 -104t36.5 -104t96.5 -42q58 0 94.5 41.5t36.5 104.5q0 62 -36.5 104t-94.5 42z" />
    <glyph glyph-name="Cacute" unicode="&#x106;" horiz-adv-x="775" 
d="M406 720q117 0 206 -61.5t125 -176.5l-108 -30q-25 78 -84 120t-140 42q-108 0 -177 -73.5t-69 -188.5t69 -188t177 -73q81 0 140 42t84 120l108 -30q-36 -115 -125 -176.5t-206 -61.5q-164 0 -266 107t-102 260q0 154 102 261t266 107z" />
    <glyph glyph-name="cacute" unicode="&#x107;" horiz-adv-x="536" 
d="M281 469q79 0 139 -43t83 -121l-106 -24q-12 42 -42.5 67t-75.5 25q-55 0 -93 -39t-38 -107t38 -107t93 -39q45 0 75.5 24.5t42.5 66.5l106 -23q-23 -78 -83 -121t-139 -43q-109 0 -178.5 70.5t-69.5 171.5t69.5 171.5t178.5 70.5z" />
    <glyph glyph-name="Ccircumflex" unicode="&#x108;" horiz-adv-x="775" 
d="M406 720q117 0 206 -61.5t125 -176.5l-108 -30q-25 78 -84 120t-140 42q-108 0 -177 -73.5t-69 -188.5t69 -188t177 -73q81 0 140 42t84 120l108 -30q-36 -115 -125 -176.5t-206 -61.5q-164 0 -266 107t-102 260q0 154 102 261t266 107z" />
    <glyph glyph-name="ccircumflex" unicode="&#x109;" horiz-adv-x="536" 
d="M281 469q79 0 139 -43t83 -121l-106 -24q-12 42 -42.5 67t-75.5 25q-55 0 -93 -39t-38 -107t38 -107t93 -39q45 0 75.5 24.5t42.5 66.5l106 -23q-23 -78 -83 -121t-139 -43q-109 0 -178.5 70.5t-69.5 171.5t69.5 171.5t178.5 70.5z" />
    <glyph glyph-name="Cdotaccent" unicode="&#x10a;" horiz-adv-x="775" 
d="M406 720q117 0 206 -61.5t125 -176.5l-108 -30q-25 78 -84 120t-140 42q-108 0 -177 -73.5t-69 -188.5t69 -188t177 -73q81 0 140 42t84 120l108 -30q-36 -115 -125 -176.5t-206 -61.5q-164 0 -266 107t-102 260q0 154 102 261t266 107z" />
    <glyph glyph-name="cdotaccent" unicode="&#x10b;" horiz-adv-x="536" 
d="M281 469q79 0 139 -43t83 -121l-106 -24q-12 42 -42.5 67t-75.5 25q-55 0 -93 -39t-38 -107t38 -107t93 -39q45 0 75.5 24.5t42.5 66.5l106 -23q-23 -78 -83 -121t-139 -43q-109 0 -178.5 70.5t-69.5 171.5t69.5 171.5t178.5 70.5z" />
    <glyph glyph-name="Ccaron" unicode="&#x10c;" horiz-adv-x="775" 
d="M406 720q117 0 206 -61.5t125 -176.5l-108 -30q-25 78 -84 120t-140 42q-108 0 -177 -73.5t-69 -188.5t69 -188t177 -73q81 0 140 42t84 120l108 -30q-36 -115 -125 -176.5t-206 -61.5q-164 0 -266 107t-102 260q0 154 102 261t266 107z" />
    <glyph glyph-name="ccaron" unicode="&#x10d;" horiz-adv-x="536" 
d="M281 469q79 0 139 -43t83 -121l-106 -24q-12 42 -42.5 67t-75.5 25q-55 0 -93 -39t-38 -107t38 -107t93 -39q45 0 75.5 24.5t42.5 66.5l106 -23q-23 -78 -83 -121t-139 -43q-109 0 -178.5 70.5t-69.5 171.5t69.5 171.5t178.5 70.5z" />
    <glyph glyph-name="Dcaron" unicode="&#x10e;" horiz-adv-x="737" 
d="M80 705h264q108 0 190.5 -50.5t123.5 -129.5t41 -172t-41 -172t-123.5 -130t-190.5 -51h-264v705zM199 604v-503h136q107 0 175 68t68 184t-68 183.5t-175 67.5h-136z" />
    <glyph glyph-name="dcaron" unicode="&#x10f;" horiz-adv-x="596" 
d="M526 0h-87l-16 60q-29 -36 -72.5 -55.5t-86.5 -19.5q-99 0 -165 70t-66 172q0 101 66 171.5t165 70.5q40 0 80 -16.5t68 -47.5v300h114v-705zM281 373q-60 0 -96.5 -42.5t-36.5 -103.5t36.5 -103.5t96.5 -42.5q59 0 95 42t36 104q0 61 -36.5 103.5t-94.5 42.5z" />
    <glyph glyph-name="Dcroat" unicode="&#x110;" horiz-adv-x="737" 
d="M80 705h264q108 0 190.5 -50.5t123.5 -129.5t41 -172t-41 -172t-123.5 -130t-190.5 -51h-264v705zM199 604v-503h136q107 0 175 68t68 184t-68 183.5t-175 67.5h-136z" />
    <glyph glyph-name="dcroat" unicode="&#x111;" horiz-adv-x="596" 
d="M526 0h-87l-16 60q-29 -36 -72.5 -55.5t-86.5 -19.5q-99 0 -165 70t-66 172q0 101 66 171.5t165 70.5q40 0 80 -16.5t68 -47.5v300h114v-705zM281 373q-60 0 -96.5 -42.5t-36.5 -103.5t36.5 -103.5t96.5 -42.5q59 0 95 42t36 104q0 61 -36.5 103.5t-94.5 42.5z" />
    <glyph glyph-name="Emacron" unicode="&#x112;" 
d="M582 604h-383v-186h317v-101h-317v-216h383v-101h-502v705h502v-101z" />
    <glyph glyph-name="emacron" unicode="&#x113;" horiz-adv-x="546" 
d="M283 469q89 0 159 -64t70 -179l-1 -25h-362q4 -57 41 -90.5t89 -33.5q81 0 119 76l93 -45q-30 -58 -85.5 -90.5t-121.5 -32.5q-111 0 -181 70.5t-70 171.5t70.5 171.5t179.5 70.5zM280 383q-49 0 -83.5 -30.5t-40.5 -76.5h241q-5 48 -37 77.5t-80 29.5z" />
    <glyph glyph-name="Ebreve" unicode="&#x114;" 
d="M582 604h-383v-186h317v-101h-317v-216h383v-101h-502v705h502v-101z" />
    <glyph glyph-name="ebreve" unicode="&#x115;" horiz-adv-x="546" 
d="M283 469q89 0 159 -64t70 -179l-1 -25h-362q4 -57 41 -90.5t89 -33.5q81 0 119 76l93 -45q-30 -58 -85.5 -90.5t-121.5 -32.5q-111 0 -181 70.5t-70 171.5t70.5 171.5t179.5 70.5zM280 383q-49 0 -83.5 -30.5t-40.5 -76.5h241q-5 48 -37 77.5t-80 29.5z" />
    <glyph glyph-name="Edotaccent" unicode="&#x116;" 
d="M582 604h-383v-186h317v-101h-317v-216h383v-101h-502v705h502v-101z" />
    <glyph glyph-name="edotaccent" unicode="&#x117;" horiz-adv-x="546" 
d="M283 469q89 0 159 -64t70 -179l-1 -25h-362q4 -57 41 -90.5t89 -33.5q81 0 119 76l93 -45q-30 -58 -85.5 -90.5t-121.5 -32.5q-111 0 -181 70.5t-70 171.5t70.5 171.5t179.5 70.5zM280 383q-49 0 -83.5 -30.5t-40.5 -76.5h241q-5 48 -37 77.5t-80 29.5z" />
    <glyph glyph-name="Eogonek" unicode="&#x118;" 
d="M582 604h-383v-186h317v-101h-317v-216h383v-101h-502v705h502v-101z" />
    <glyph glyph-name="eogonek" unicode="&#x119;" horiz-adv-x="546" 
d="M283 469q89 0 159 -64t70 -179l-1 -25h-362q4 -57 41 -90.5t89 -33.5q81 0 119 76l93 -45q-30 -58 -85.5 -90.5t-121.5 -32.5q-111 0 -181 70.5t-70 171.5t70.5 171.5t179.5 70.5zM280 383q-49 0 -83.5 -30.5t-40.5 -76.5h241q-5 48 -37 77.5t-80 29.5z" />
    <glyph glyph-name="Ecaron" unicode="&#x11a;" 
d="M582 604h-383v-186h317v-101h-317v-216h383v-101h-502v705h502v-101z" />
    <glyph glyph-name="ecaron" unicode="&#x11b;" horiz-adv-x="546" 
d="M283 469q89 0 159 -64t70 -179l-1 -25h-362q4 -57 41 -90.5t89 -33.5q81 0 119 76l93 -45q-30 -58 -85.5 -90.5t-121.5 -32.5q-111 0 -181 70.5t-70 171.5t70.5 171.5t179.5 70.5zM280 383q-49 0 -83.5 -30.5t-40.5 -76.5h241q-5 48 -37 77.5t-80 29.5z" />
    <glyph glyph-name="Gcircumflex" unicode="&#x11c;" horiz-adv-x="811" 
d="M406 720q108 0 193.5 -53t128.5 -158l-108 -36q-28 69 -84.5 105t-130.5 36q-108 0 -177 -73.5t-69 -188.5t69 -188t176 -73q94 0 154 53t73 137h-259v101h359v-384h-78l-20 91q-39 -52 -100 -78t-130 -26q-162 0 -263.5 107t-101.5 260q0 154 102 261t266 107z" />
    <glyph glyph-name="gcircumflex" unicode="&#x11d;" horiz-adv-x="593" 
d="M265 469q44 0 87 -19t72 -55l16 59h87v-448q0 -103 -64 -175.5t-188 -72.5q-98 0 -165 54.5t-77 155.5l107 18q3 -64 41 -98t97 -34q70 0 102 41t32 97v78q-59 -61 -147 -61q-99 0 -164.5 65.5t-65.5 164.5t65.5 164.5t164.5 65.5zM282 373q-59 0 -96 -38t-37 -96
q0 -57 37.5 -95.5t95.5 -38.5q57 0 94 38.5t37 95.5q0 58 -37 96t-94 38z" />
    <glyph glyph-name="Gbreve" unicode="&#x11e;" horiz-adv-x="811" 
d="M406 720q108 0 193.5 -53t128.5 -158l-108 -36q-28 69 -84.5 105t-130.5 36q-108 0 -177 -73.5t-69 -188.5t69 -188t176 -73q94 0 154 53t73 137h-259v101h359v-384h-78l-20 91q-39 -52 -100 -78t-130 -26q-162 0 -263.5 107t-101.5 260q0 154 102 261t266 107z" />
    <glyph glyph-name="gbreve" unicode="&#x11f;" horiz-adv-x="593" 
d="M265 469q44 0 87 -19t72 -55l16 59h87v-448q0 -103 -64 -175.5t-188 -72.5q-98 0 -165 54.5t-77 155.5l107 18q3 -64 41 -98t97 -34q70 0 102 41t32 97v78q-59 -61 -147 -61q-99 0 -164.5 65.5t-65.5 164.5t65.5 164.5t164.5 65.5zM282 373q-59 0 -96 -38t-37 -96
q0 -57 37.5 -95.5t95.5 -38.5q57 0 94 38.5t37 95.5q0 58 -37 96t-94 38z" />
    <glyph glyph-name="Gdotaccent" unicode="&#x120;" horiz-adv-x="811" 
d="M406 720q108 0 193.5 -53t128.5 -158l-108 -36q-28 69 -84.5 105t-130.5 36q-108 0 -177 -73.5t-69 -188.5t69 -188t176 -73q94 0 154 53t73 137h-259v101h359v-384h-78l-20 91q-39 -52 -100 -78t-130 -26q-162 0 -263.5 107t-101.5 260q0 154 102 261t266 107z" />
    <glyph glyph-name="gdotaccent" unicode="&#x121;" horiz-adv-x="593" 
d="M265 469q44 0 87 -19t72 -55l16 59h87v-448q0 -103 -64 -175.5t-188 -72.5q-98 0 -165 54.5t-77 155.5l107 18q3 -64 41 -98t97 -34q70 0 102 41t32 97v78q-59 -61 -147 -61q-99 0 -164.5 65.5t-65.5 164.5t65.5 164.5t164.5 65.5zM282 373q-59 0 -96 -38t-37 -96
q0 -57 37.5 -95.5t95.5 -38.5q57 0 94 38.5t37 95.5q0 58 -37 96t-94 38z" />
    <glyph glyph-name="Gcommaaccent" unicode="&#x122;" horiz-adv-x="811" 
d="M406 720q108 0 193.5 -53t128.5 -158l-108 -36q-28 69 -84.5 105t-130.5 36q-108 0 -177 -73.5t-69 -188.5t69 -188t176 -73q94 0 154 53t73 137h-259v101h359v-384h-78l-20 91q-39 -52 -100 -78t-130 -26q-162 0 -263.5 107t-101.5 260q0 154 102 261t266 107z" />
    <glyph glyph-name="gcommaaccent" unicode="&#x123;" horiz-adv-x="593" 
d="M265 469q44 0 87 -19t72 -55l16 59h87v-448q0 -103 -64 -175.5t-188 -72.5q-98 0 -165 54.5t-77 155.5l107 18q3 -64 41 -98t97 -34q70 0 102 41t32 97v78q-59 -61 -147 -61q-99 0 -164.5 65.5t-65.5 164.5t65.5 164.5t164.5 65.5zM282 373q-59 0 -96 -38t-37 -96
q0 -57 37.5 -95.5t95.5 -38.5q57 0 94 38.5t37 95.5q0 58 -37 96t-94 38z" />
    <glyph glyph-name="Hcircumflex" unicode="&#x124;" horiz-adv-x="749" 
d="M669 0h-119v309h-351v-309h-119v705h119v-295h351v295h119v-705z" />
    <glyph glyph-name="hcircumflex" unicode="&#x125;" horiz-adv-x="607" 
d="M184 705v-302q64 66 159 66q90 0 145.5 -58.5t55.5 -151.5v-259h-114v247q0 58 -30 92t-84 34t-93 -39t-39 -101v-233h-114v705h114z" />
    <glyph glyph-name="Hbar" unicode="&#x126;" horiz-adv-x="749" 
d="M669 0h-119v309h-351v-309h-119v705h119v-295h351v295h119v-705z" />
    <glyph glyph-name="hbar" unicode="&#x127;" horiz-adv-x="607" 
d="M184 705v-302q64 66 159 66q90 0 145.5 -58.5t55.5 -151.5v-259h-114v247q0 58 -30 92t-84 34t-93 -39t-39 -101v-233h-114v705h114z" />
    <glyph glyph-name="Itilde" unicode="&#x128;" horiz-adv-x="279" 
d="M199 0h-119v705h119v-705z" />
    <glyph glyph-name="itilde" unicode="&#x129;" horiz-adv-x="254" 
d="M184 0h-114v454h114v-454z" />
    <glyph glyph-name="Imacron" unicode="&#x12a;" horiz-adv-x="279" 
d="M199 0h-119v705h119v-705z" />
    <glyph glyph-name="imacron" unicode="&#x12b;" horiz-adv-x="254" 
d="M184 0h-114v454h114v-454z" />
    <glyph glyph-name="Ibreve" unicode="&#x12c;" horiz-adv-x="279" 
d="M199 0h-119v705h119v-705z" />
    <glyph glyph-name="ibreve" unicode="&#x12d;" horiz-adv-x="254" 
d="M184 0h-114v454h114v-454z" />
    <glyph glyph-name="Iogonek" unicode="&#x12e;" horiz-adv-x="279" 
d="M199 0h-119v705h119v-705z" />
    <glyph glyph-name="iogonek" unicode="&#x12f;" horiz-adv-x="254" 
d="M184 0h-114v454h114v-454z" />
    <glyph glyph-name="Idotaccent" unicode="&#x130;" horiz-adv-x="279" 
d="M199 0h-119v705h119v-705z" />
    <glyph glyph-name="dotlessi" unicode="&#x131;" horiz-adv-x="254" 
d="M184 0h-114v454h114v-454z" />
    <glyph glyph-name="Jcircumflex" unicode="&#x134;" horiz-adv-x="363" 
d="M293 705v-542q0 -102 -76.5 -152.5t-186.5 -4.5l24 91q52 -18 86 1.5t34 70.5v435h-115v101h234z" />
    <glyph glyph-name="jcircumflex" unicode="&#x135;" horiz-adv-x="272" 
d="M209 454v-527q0 -103 -71.5 -146t-166.5 -8l-39 15l34 93l33 -12q42 -15 69 4.5t27 59.5v521h114z" />
    <glyph glyph-name="Kcommaaccent" unicode="&#x136;" horiz-adv-x="690" 
d="M376 424l299 -424h-143l-237 336l-96 -103v-233h-119v705h119v-309l287 309h148z" />
    <glyph glyph-name="kcommaaccent" unicode="&#x137;" horiz-adv-x="562" 
d="M184 255l196 199h134l-172 -180l213 -274h-132l-155 196l-84 -84v-112h-114v705h114v-450z" />
    <glyph glyph-name="Lacute" unicode="&#x139;" horiz-adv-x="567" 
d="M199 101h343v-101h-462v705h119v-604z" />
    <glyph glyph-name="lacute" unicode="&#x13a;" horiz-adv-x="254" 
d="M184 0h-114v705h114v-705z" />
    <glyph glyph-name="Lcommaaccent" unicode="&#x13b;" horiz-adv-x="567" 
d="M199 101h343v-101h-462v705h119v-604z" />
    <glyph glyph-name="lcommaaccent" unicode="&#x13c;" horiz-adv-x="254" 
d="M184 0h-114v705h114v-705z" />
    <glyph glyph-name="Lcaron" unicode="&#x13d;" horiz-adv-x="567" 
d="M199 101h343v-101h-462v705h119v-604z" />
    <glyph glyph-name="lcaron" unicode="&#x13e;" horiz-adv-x="254" 
d="M184 0h-114v705h114v-705z" />
    <glyph glyph-name="Ldot" unicode="&#x13f;" horiz-adv-x="567" 
d="M199 101h343v-101h-462v705h119v-604z" />
    <glyph glyph-name="ldot" unicode="&#x140;" horiz-adv-x="254" 
d="M184 0h-114v705h114v-705z" />
    <glyph glyph-name="Lslash" unicode="&#x141;" horiz-adv-x="567" 
d="M199 101h343v-101h-462v705h119v-604z" />
    <glyph glyph-name="lslash" unicode="&#x142;" horiz-adv-x="254" 
d="M184 0h-114v705h114v-705z" />
    <glyph glyph-name="Nacute" unicode="&#x143;" horiz-adv-x="756" 
d="M676 0h-101l-376 498v-498h-119v705h101l376 -498v498h119v-705z" />
    <glyph glyph-name="nacute" unicode="&#x144;" horiz-adv-x="607" 
d="M343 469q90 0 145.5 -58.5t55.5 -151.5v-259h-114v247q0 58 -30 92t-84 34t-93 -39t-39 -101v-233h-114v454h87l16 -61q71 76 170 76z" />
    <glyph glyph-name="Ncommaaccent" unicode="&#x145;" horiz-adv-x="756" 
d="M676 0h-101l-376 498v-498h-119v705h101l376 -498v498h119v-705z" />
    <glyph glyph-name="ncommaaccent" unicode="&#x146;" horiz-adv-x="607" 
d="M343 469q90 0 145.5 -58.5t55.5 -151.5v-259h-114v247q0 58 -30 92t-84 34t-93 -39t-39 -101v-233h-114v454h87l16 -61q71 76 170 76z" />
    <glyph glyph-name="Ncaron" unicode="&#x147;" horiz-adv-x="756" 
d="M676 0h-101l-376 498v-498h-119v705h101l376 -498v498h119v-705z" />
    <glyph glyph-name="ncaron" unicode="&#x148;" horiz-adv-x="607" 
d="M343 469q90 0 145.5 -58.5t55.5 -151.5v-259h-114v247q0 58 -30 92t-84 34t-93 -39t-39 -101v-233h-114v454h87l16 -61q71 76 170 76z" />
    <glyph glyph-name="Eng" unicode="&#x14a;" horiz-adv-x="756" 
d="M676 0h-101l-376 498v-498h-119v705h101l376 -498v498h119v-705z" />
    <glyph glyph-name="eng" unicode="&#x14b;" horiz-adv-x="607" 
d="M343 469q90 0 145.5 -58.5t55.5 -151.5v-259h-114v247q0 58 -30 92t-84 34t-93 -39t-39 -101v-233h-114v454h87l16 -61q71 76 170 76z" />
    <glyph glyph-name="Omacron" unicode="&#x14c;" horiz-adv-x="817" 
d="M408 720q164 0 267 -107t103 -261q0 -153 -103 -260t-267 -107q-163 0 -266.5 107t-103.5 260t103.5 260.5t266.5 107.5zM408 614q-108 0 -178.5 -73.5t-70.5 -188.5q0 -114 70.5 -187.5t178.5 -73.5t179 73.5t71 187.5q0 115 -70.5 188.5t-179.5 73.5z" />
    <glyph glyph-name="omacron" unicode="&#x14d;" horiz-adv-x="563" 
d="M282 469q110 0 179 -70t69 -172q0 -103 -69 -172.5t-179 -69.5t-179.5 69.5t-69.5 172.5q0 102 69.5 172t179.5 70zM282 373q-59 0 -96.5 -41.5t-37.5 -104.5t37.5 -104.5t96.5 -41.5q58 0 95.5 41.5t37.5 104.5t-37.5 104.5t-95.5 41.5z" />
    <glyph glyph-name="Obreve" unicode="&#x14e;" horiz-adv-x="817" 
d="M408 720q164 0 267 -107t103 -261q0 -153 -103 -260t-267 -107q-163 0 -266.5 107t-103.5 260t103.5 260.5t266.5 107.5zM408 614q-108 0 -178.5 -73.5t-70.5 -188.5q0 -114 70.5 -187.5t178.5 -73.5t179 73.5t71 187.5q0 115 -70.5 188.5t-179.5 73.5z" />
    <glyph glyph-name="obreve" unicode="&#x14f;" horiz-adv-x="563" 
d="M282 469q110 0 179 -70t69 -172q0 -103 -69 -172.5t-179 -69.5t-179.5 69.5t-69.5 172.5q0 102 69.5 172t179.5 70zM282 373q-59 0 -96.5 -41.5t-37.5 -104.5t37.5 -104.5t96.5 -41.5q58 0 95.5 41.5t37.5 104.5t-37.5 104.5t-95.5 41.5z" />
    <glyph glyph-name="Ohungarumlaut" unicode="&#x150;" horiz-adv-x="817" 
d="M408 720q164 0 267 -107t103 -261q0 -153 -103 -260t-267 -107q-163 0 -266.5 107t-103.5 260t103.5 260.5t266.5 107.5zM408 614q-108 0 -178.5 -73.5t-70.5 -188.5q0 -114 70.5 -187.5t178.5 -73.5t179 73.5t71 187.5q0 115 -70.5 188.5t-179.5 73.5z" />
    <glyph glyph-name="ohungarumlaut" unicode="&#x151;" horiz-adv-x="563" 
d="M282 469q110 0 179 -70t69 -172q0 -103 -69 -172.5t-179 -69.5t-179.5 69.5t-69.5 172.5q0 102 69.5 172t179.5 70zM282 373q-59 0 -96.5 -41.5t-37.5 -104.5t37.5 -104.5t96.5 -41.5q58 0 95.5 41.5t37.5 104.5t-37.5 104.5t-95.5 41.5z" />
    <glyph glyph-name="Racute" unicode="&#x154;" horiz-adv-x="726" 
d="M80 705h307q108 0 166 -57.5t58 -142.5q0 -64 -35.5 -110.5t-103.5 -69.5l215 -325h-138l-202 305h-148v-305h-119v705zM199 604v-198h183q52 0 81 27.5t29 71.5q0 45 -29 72t-81 27h-183z" />
    <glyph glyph-name="racute" unicode="&#x155;" horiz-adv-x="408" 
d="M388 452l-35 -96q-68 29 -118.5 -5.5t-50.5 -106.5v-244h-114v454h87l16 -57q35 49 94.5 64.5t120.5 -9.5z" />
    <glyph glyph-name="Rcommaaccent" unicode="&#x156;" horiz-adv-x="726" 
d="M80 705h307q108 0 166 -57.5t58 -142.5q0 -64 -35.5 -110.5t-103.5 -69.5l215 -325h-138l-202 305h-148v-305h-119v705zM199 604v-198h183q52 0 81 27.5t29 71.5q0 45 -29 72t-81 27h-183z" />
    <glyph glyph-name="rcommaaccent" unicode="&#x157;" horiz-adv-x="408" 
d="M388 452l-35 -96q-68 29 -118.5 -5.5t-50.5 -106.5v-244h-114v454h87l16 -57q35 49 94.5 64.5t120.5 -9.5z" />
    <glyph glyph-name="Rcaron" unicode="&#x158;" horiz-adv-x="726" 
d="M80 705h307q108 0 166 -57.5t58 -142.5q0 -64 -35.5 -110.5t-103.5 -69.5l215 -325h-138l-202 305h-148v-305h-119v705zM199 604v-198h183q52 0 81 27.5t29 71.5q0 45 -29 72t-81 27h-183z" />
    <glyph glyph-name="rcaron" unicode="&#x159;" horiz-adv-x="408" 
d="M388 452l-35 -96q-68 29 -118.5 -5.5t-50.5 -106.5v-244h-114v454h87l16 -57q35 49 94.5 64.5t120.5 -9.5z" />
    <glyph glyph-name="Sacute" unicode="&#x15a;" 
d="M318 720q93 0 165.5 -46t108.5 -133l-104 -37q-51 115 -173 115q-55 0 -90 -25t-35 -65q0 -32 23 -53.5t60 -33.5t81.5 -22.5t89 -26t81.5 -37t60 -62t23 -96.5q0 -96 -77 -154.5t-192 -58.5q-48 0 -92 10.5t-87 34t-77 67t-53 103.5l106 37q23 -76 78 -113.5t129 -37.5
q63 0 104.5 29t41.5 77q0 36 -23 60.5t-60 38t-81.5 25t-88.5 26t-81 35.5t-60 59.5t-23 92.5q0 81 70 136t176 55z" />
    <glyph glyph-name="sacute" unicode="&#x15b;" horiz-adv-x="462" 
d="M234 469q67 0 118.5 -28.5t80.5 -79.5l-86 -36q-17 30 -46.5 49t-64.5 19q-30 0 -51 -12t-21 -32q0 -24 26 -37t83 -28q88 -24 128.5 -59.5t40.5 -97.5q0 -59 -54 -100.5t-141 -41.5q-70 0 -130.5 34t-88.5 98l90 38q17 -39 52 -64.5t80 -25.5q34 0 56 15t22 39
q0 29 -24 44t-80 29q-83 22 -126.5 57.5t-43.5 91.5q0 55 50 91.5t130 36.5z" />
    <glyph glyph-name="Scircumflex" unicode="&#x15c;" 
d="M318 720q93 0 165.5 -46t108.5 -133l-104 -37q-51 115 -173 115q-55 0 -90 -25t-35 -65q0 -32 23 -53.5t60 -33.5t81.5 -22.5t89 -26t81.5 -37t60 -62t23 -96.5q0 -96 -77 -154.5t-192 -58.5q-48 0 -92 10.5t-87 34t-77 67t-53 103.5l106 37q23 -76 78 -113.5t129 -37.5
q63 0 104.5 29t41.5 77q0 36 -23 60.5t-60 38t-81.5 25t-88.5 26t-81 35.5t-60 59.5t-23 92.5q0 81 70 136t176 55z" />
    <glyph glyph-name="scircumflex" unicode="&#x15d;" horiz-adv-x="462" 
d="M234 469q67 0 118.5 -28.5t80.5 -79.5l-86 -36q-17 30 -46.5 49t-64.5 19q-30 0 -51 -12t-21 -32q0 -24 26 -37t83 -28q88 -24 128.5 -59.5t40.5 -97.5q0 -59 -54 -100.5t-141 -41.5q-70 0 -130.5 34t-88.5 98l90 38q17 -39 52 -64.5t80 -25.5q34 0 56 15t22 39
q0 29 -24 44t-80 29q-83 22 -126.5 57.5t-43.5 91.5q0 55 50 91.5t130 36.5z" />
    <glyph glyph-name="Scedilla" unicode="&#x15e;" 
d="M318 720q93 0 165.5 -46t108.5 -133l-104 -37q-51 115 -173 115q-55 0 -90 -25t-35 -65q0 -32 23 -53.5t60 -33.5t81.5 -22.5t89 -26t81.5 -37t60 -62t23 -96.5q0 -96 -77 -154.5t-192 -58.5q-48 0 -92 10.5t-87 34t-77 67t-53 103.5l106 37q23 -76 78 -113.5t129 -37.5
q63 0 104.5 29t41.5 77q0 36 -23 60.5t-60 38t-81.5 25t-88.5 26t-81 35.5t-60 59.5t-23 92.5q0 81 70 136t176 55z" />
    <glyph glyph-name="scedilla" unicode="&#x15f;" horiz-adv-x="462" 
d="M234 469q67 0 118.5 -28.5t80.5 -79.5l-86 -36q-17 30 -46.5 49t-64.5 19q-30 0 -51 -12t-21 -32q0 -24 26 -37t83 -28q88 -24 128.5 -59.5t40.5 -97.5q0 -59 -54 -100.5t-141 -41.5q-70 0 -130.5 34t-88.5 98l90 38q17 -39 52 -64.5t80 -25.5q34 0 56 15t22 39
q0 29 -24 44t-80 29q-83 22 -126.5 57.5t-43.5 91.5q0 55 50 91.5t130 36.5z" />
    <glyph glyph-name="Scaron" unicode="&#x160;" 
d="M318 720q93 0 165.5 -46t108.5 -133l-104 -37q-51 115 -173 115q-55 0 -90 -25t-35 -65q0 -32 23 -53.5t60 -33.5t81.5 -22.5t89 -26t81.5 -37t60 -62t23 -96.5q0 -96 -77 -154.5t-192 -58.5q-48 0 -92 10.5t-87 34t-77 67t-53 103.5l106 37q23 -76 78 -113.5t129 -37.5
q63 0 104.5 29t41.5 77q0 36 -23 60.5t-60 38t-81.5 25t-88.5 26t-81 35.5t-60 59.5t-23 92.5q0 81 70 136t176 55z" />
    <glyph glyph-name="scaron" unicode="&#x161;" horiz-adv-x="462" 
d="M234 469q67 0 118.5 -28.5t80.5 -79.5l-86 -36q-17 30 -46.5 49t-64.5 19q-30 0 -51 -12t-21 -32q0 -24 26 -37t83 -28q88 -24 128.5 -59.5t40.5 -97.5q0 -59 -54 -100.5t-141 -41.5q-70 0 -130.5 34t-88.5 98l90 38q17 -39 52 -64.5t80 -25.5q34 0 56 15t22 39
q0 29 -24 44t-80 29q-83 22 -126.5 57.5t-43.5 91.5q0 55 50 91.5t130 36.5z" />
    <glyph glyph-name="Tcedilla" unicode="&#x162;" horiz-adv-x="557" 
d="M541 604h-203v-604h-119v604h-202v101h524v-101z" />
    <glyph glyph-name="tcedilla" unicode="&#x163;" horiz-adv-x="372" 
 />
    <glyph glyph-name="Tcaron" unicode="&#x164;" horiz-adv-x="557" 
d="M541 604h-203v-604h-119v604h-202v101h524v-101z" />
    <glyph glyph-name="tcaron" unicode="&#x165;" horiz-adv-x="440" 
d="M240 454h158v-96h-158v-200q0 -38 27.5 -56.5t68.5 -4.5l32 12l34 -92l-38 -15q-92 -38 -165 5.5t-73 147.5v203h-113v96h113v144h114v-144z" />
    <glyph glyph-name="Tbar" unicode="&#x166;" horiz-adv-x="557" 
d="M541 604h-203v-604h-119v604h-202v101h524v-101z" />
    <glyph glyph-name="tbar" unicode="&#x167;" horiz-adv-x="440" 
d="M240 454h158v-96h-158v-200q0 -38 27.5 -56.5t68.5 -4.5l32 12l34 -92l-38 -15q-92 -38 -165 5.5t-73 147.5v203h-113v96h113v144h114v-144z" />
    <glyph glyph-name="Utilde" unicode="&#x168;" horiz-adv-x="753" 
d="M673 705v-437q0 -52 -16 -100t-49.5 -90.5t-93 -67.5t-138.5 -25q-63 0 -114.5 17t-84.5 44.5t-55.5 65t-32 76.5t-9.5 80v437h119v-428q0 -88 44.5 -139.5t132.5 -51.5q89 0 133.5 51.5t44.5 139.5v428h119z" />
    <glyph glyph-name="utilde" unicode="&#x169;" horiz-adv-x="614" 
d="M544 0h-87l-16 60q-72 -75 -171 -75q-89 0 -144.5 58.5t-55.5 150.5v260h114v-248q0 -58 30 -91.5t84 -33.5t93 39t39 100v234h114v-454z" />
    <glyph glyph-name="Umacron" unicode="&#x16a;" horiz-adv-x="753" 
d="M673 705v-437q0 -52 -16 -100t-49.5 -90.5t-93 -67.5t-138.5 -25q-63 0 -114.5 17t-84.5 44.5t-55.5 65t-32 76.5t-9.5 80v437h119v-428q0 -88 44.5 -139.5t132.5 -51.5q89 0 133.5 51.5t44.5 139.5v428h119z" />
    <glyph glyph-name="umacron" unicode="&#x16b;" horiz-adv-x="614" 
d="M548 0h-87l-17 60q-70 -75 -169 -75q-90 0 -146 58.5t-57 150.5l-3 260h114l3 -248q1 -58 31 -91.5t84 -33.5t92.5 39t37.5 100l-2 234h114z" />
    <glyph glyph-name="Uring" unicode="&#x16e;" horiz-adv-x="753" 
d="M673 705v-437q0 -52 -16 -100t-49.5 -90.5t-93 -67.5t-138.5 -25q-63 0 -114.5 17t-84.5 44.5t-55.5 65t-32 76.5t-9.5 80v437h119v-428q0 -88 44.5 -139.5t132.5 -51.5q89 0 133.5 51.5t44.5 139.5v428h119z" />
    <glyph glyph-name="uring" unicode="&#x16f;" horiz-adv-x="614" 
d="M544 0h-87l-16 60q-72 -75 -171 -75q-89 0 -144.5 58.5t-55.5 150.5v260h114v-248q0 -58 30 -91.5t84 -33.5t93 39t39 100v234h114v-454z" />
    <glyph glyph-name="Uhungarumlaut" unicode="&#x170;" horiz-adv-x="753" 
d="M673 705v-437q0 -52 -16 -100t-49.5 -90.5t-93 -67.5t-138.5 -25q-63 0 -114.5 17t-84.5 44.5t-55.5 65t-32 76.5t-9.5 80v437h119v-428q0 -88 44.5 -139.5t132.5 -51.5q89 0 133.5 51.5t44.5 139.5v428h119z" />
    <glyph glyph-name="uhungarumlaut" unicode="&#x171;" horiz-adv-x="614" 
d="M544 0h-87l-16 60q-72 -75 -171 -75q-89 0 -144.5 58.5t-55.5 150.5v260h114v-248q0 -58 30 -91.5t84 -33.5t93 39t39 100v234h114v-454z" />
    <glyph glyph-name="Uogonek" unicode="&#x172;" horiz-adv-x="753" 
d="M673 705v-437q0 -52 -16 -100t-49.5 -90.5t-93 -67.5t-138.5 -25q-63 0 -114.5 17t-84.5 44.5t-55.5 65t-32 76.5t-9.5 80v437h119v-428q0 -88 44.5 -139.5t132.5 -51.5q89 0 133.5 51.5t44.5 139.5v428h119z" />
    <glyph glyph-name="uogonek" unicode="&#x173;" horiz-adv-x="614" 
d="M544 0h-87l-16 60q-72 -75 -171 -75q-89 0 -144.5 58.5t-55.5 150.5v260h114v-248q0 -58 30 -91.5t84 -33.5t93 39t39 100v234h114v-454z" />
    <glyph glyph-name="Wcircumflex" unicode="&#x174;" horiz-adv-x="981" 
d="M734 0h-100l-143 438l-144 -438h-100l-237 705h126l164 -496l166 496h49l166 -496l164 496h126z" />
    <glyph glyph-name="wcircumflex" unicode="&#x175;" horiz-adv-x="738" 
d="M562 0h-93l-100 275l-100 -275h-93l-166 454h115l104 -285l104 285h73l104 -285l104 285h114z" />
    <glyph glyph-name="Ycircumflex" unicode="&#x176;" horiz-adv-x="696" 
d="M408 302v-302h-119v302l-279 403h143l195 -289l196 289h142z" />
    <glyph glyph-name="ycircumflex" unicode="&#x177;" horiz-adv-x="547" 
d="M220 -215h-119l119 254l-210 415h126l145 -298l134 298h122z" />
    <glyph glyph-name="Ydieresis" unicode="&#x178;" horiz-adv-x="696" 
d="M408 302v-302h-119v302l-279 403h143l195 -289l196 289h142z" />
    <glyph glyph-name="Zacute" unicode="&#x179;" 
d="M579 619l-388 -518h403v-101h-556v86l388 518h-375v101h528v-86z" />
    <glyph glyph-name="zacute" unicode="&#x17a;" horiz-adv-x="470" 
d="M436 381l-259 -285h273v-96h-430v74l259 284h-245v96h402v-73z" />
    <glyph glyph-name="Zdotaccent" unicode="&#x17b;" 
d="M579 619l-388 -518h403v-101h-556v86l388 518h-375v101h528v-86z" />
    <glyph glyph-name="zdotaccent" unicode="&#x17c;" horiz-adv-x="470" 
d="M436 381l-259 -285h273v-96h-430v74l259 284h-245v96h402v-73z" />
    <glyph glyph-name="Zcaron" unicode="&#x17d;" 
d="M579 619l-388 -518h403v-101h-556v86l388 518h-375v101h528v-86z" />
    <glyph glyph-name="zcaron" unicode="&#x17e;" horiz-adv-x="470" 
d="M436 381l-259 -285h273v-96h-430v74l259 284h-245v96h402v-73z" />
    <glyph glyph-name="Scommaaccent" unicode="&#x218;" 
d="M318 720q93 0 165.5 -46t108.5 -133l-104 -37q-51 115 -173 115q-55 0 -90 -25t-35 -65q0 -32 23 -53.5t60 -33.5t81.5 -22.5t89 -26t81.5 -37t60 -62t23 -96.5q0 -96 -77 -154.5t-192 -58.5q-48 0 -92 10.5t-87 34t-77 67t-53 103.5l106 37q23 -76 78 -113.5t129 -37.5
q63 0 104.5 29t41.5 77q0 36 -23 60.5t-60 38t-81.5 25t-88.5 26t-81 35.5t-60 59.5t-23 92.5q0 81 70 136t176 55z" />
    <glyph glyph-name="scommaaccent" unicode="&#x219;" horiz-adv-x="462" 
d="M234 469q67 0 118.5 -28.5t80.5 -79.5l-86 -36q-17 30 -46.5 49t-64.5 19q-30 0 -51 -12t-21 -32q0 -24 26 -37t83 -28q88 -24 128.5 -59.5t40.5 -97.5q0 -59 -54 -100.5t-141 -41.5q-70 0 -130.5 34t-88.5 98l90 38q17 -39 52 -64.5t80 -25.5q34 0 56 15t22 39
q0 29 -24 44t-80 29q-83 22 -126.5 57.5t-43.5 91.5q0 55 50 91.5t130 36.5z" />
    <glyph glyph-name="uni021A" unicode="&#x21a;" horiz-adv-x="557" 
d="M541 604h-203v-604h-119v604h-202v101h524v-101z" />
    <glyph glyph-name="uni021B" unicode="&#x21b;" horiz-adv-x="372" 
 />
    <glyph glyph-name="dotlessj" unicode="&#x237;" horiz-adv-x="272" 
d="M209 454v-527q0 -103 -71.5 -146t-166.5 -8l-39 15l34 93l33 -12q42 -15 69 4.5t27 59.5v521h114z" />
    <glyph glyph-name="Wgrave" unicode="&#x1e80;" horiz-adv-x="981" 
d="M734 0h-100l-143 438l-144 -438h-100l-237 705h126l164 -496l166 496h49l166 -496l164 496h126z" />
    <glyph glyph-name="wgrave" unicode="&#x1e81;" horiz-adv-x="738" 
d="M562 0h-93l-100 275l-100 -275h-93l-166 454h115l104 -285l104 285h73l104 -285l104 285h114z" />
    <glyph glyph-name="Wacute" unicode="&#x1e82;" horiz-adv-x="981" 
d="M734 0h-100l-143 438l-144 -438h-100l-237 705h126l164 -496l166 496h49l166 -496l164 496h126z" />
    <glyph glyph-name="wacute" unicode="&#x1e83;" horiz-adv-x="738" 
d="M562 0h-93l-100 275l-100 -275h-93l-166 454h115l104 -285l104 285h73l104 -285l104 285h114z" />
    <glyph glyph-name="Wdieresis" unicode="&#x1e84;" horiz-adv-x="981" 
d="M734 0h-100l-143 438l-144 -438h-100l-237 705h126l164 -496l166 496h49l166 -496l164 496h126z" />
    <glyph glyph-name="wdieresis" unicode="&#x1e85;" horiz-adv-x="738" 
d="M562 0h-93l-100 275l-100 -275h-93l-166 454h115l104 -285l104 285h73l104 -285l104 285h114z" />
    <glyph glyph-name="Ygrave" unicode="&#x1ef2;" horiz-adv-x="696" 
d="M408 302v-302h-119v302l-279 403h143l195 -289l196 289h142z" />
    <glyph glyph-name="ygrave" unicode="&#x1ef3;" horiz-adv-x="547" 
d="M220 -215h-119l119 254l-210 415h126l145 -298l134 298h122z" />
    <glyph glyph-name="i.loclTRK" horiz-adv-x="254" 
d="M184 0h-114v454h114v-454z" />
  </font>
</defs>
</svg>
