<?xml version="1.0" standalone="no"?>
<!DOCTYPE svg PUBLIC "-//W3C//DTD SVG 1.1//EN" "http://www.w3.org/Graphics/SVG/1.1/DTD/svg11.dtd" >
<svg xmlns="http://www.w3.org/2000/svg" xmlns:xlink="http://www.w3.org/1999/xlink" version="1.1">
<metadata>
Created by FontForge 20161013 at Sun Apr  6 19:07:50 2014
 By ,,,
Copyright (c) 2014 by Heavyweight All rights reserved.
</metadata>
<defs>
<font id="DanzzaTrial-Regular" horiz-adv-x="228" >
  <font-face 
    font-family="Danzza Trial"
    font-weight="400"
    font-stretch="normal"
    units-per-em="1000"
    panose-1="0 0 5 0 0 0 0 0 0 0"
    ascent="800"
    descent="-200"
    x-height="449"
    cap-height="705"
    bbox="-176 -242.124 955 721.222"
    underline-thickness="68"
    underline-position="-316"
    unicode-range="U+000D-1EF3"
  />
<missing-glyph horiz-adv-x="433" 
 />
    <glyph glyph-name=".notdef" horiz-adv-x="433" 
 />
    <glyph glyph-name=".null" horiz-adv-x="0" 
 />
    <glyph glyph-name="nonmarkingreturn" horiz-adv-x="333" 
 />
    <glyph glyph-name="CR" unicode="&#xd;" horiz-adv-x="600" 
 />
    <glyph glyph-name="space" unicode=" " horiz-adv-x="230" 
 />
    <glyph glyph-name="comma" unicode="," horiz-adv-x="221" 
d="M67 -140h-57l55 263h81z" />
    <glyph glyph-name="hyphen" unicode="-" horiz-adv-x="502" 
d="M417 228h-332v62h332v-62z" />
    <glyph glyph-name="period" unicode="." horiz-adv-x="194" 
d="M97 103q24 0 41.5 -17.5t17.5 -41.5t-17.5 -41.5t-41.5 -17.5t-41.5 17.5t-17.5 41.5t17.5 41.5t41.5 17.5z" />
    <glyph glyph-name="zero" unicode="0" horiz-adv-x="617" 
d="M308 721q71 0 124 -32t82.5 -86t43.5 -116.5t14 -133.5t-14 -133.5t-43.5 -117t-82.5 -86t-124 -31.5q-70 0 -123 31.5t-82.5 86t-43.5 117t-14 133.5t14 133.5t43.5 116.5t82.5 86t123 32zM308 650q-88 0 -134 -83t-46 -214q0 -132 46 -214.5t134 -82.5q89 0 135 82.5
t46 214.5q0 131 -46 214t-135 83z" />
    <glyph glyph-name="one" unicode="1" horiz-adv-x="301" 
d="M228 0h-82v607l-118 -81v87l133 92h67v-705z" />
    <glyph glyph-name="two" unicode="2" horiz-adv-x="535" 
d="M269 721q108 0 168 -58.5t60 -137.5q0 -31 -11 -60t-22.5 -47t-40.5 -43.5t-40 -34t-47 -34.5q-8 -6 -33 -23t-34.5 -23.5t-30.5 -22.5t-30 -24.5t-24.5 -23.5t-22.5 -27t-15.5 -27.5t-11.5 -31t-3 -32.5h371v-71h-467q-5 49 6 93.5t28 74.5t54 65.5t61 53.5t72 52
q6 4 8.5 6t7 5t8.5 6q78 54 106.5 87t28.5 82q0 53 -39 89t-107 36q-88 0 -126.5 -60t-15.5 -131l-80 -16q-30 112 34 195t188 83z" />
    <glyph glyph-name="three" unicode="3" horiz-adv-x="562" 
d="M504 650l-199 -218q102 -8 161 -71t59 -149t-64.5 -157t-183.5 -71q-110 0 -175 64.5t-72 149.5l79 17q4 -70 49 -115t119 -45t120 45t46 112q0 68 -46.5 112.5t-120.5 44.5q-25 0 -44 -4l-30 56l194 213h-330v71h438v-55z" />
    <glyph glyph-name="four" unicode="4" horiz-adv-x="569" 
d="M459 240h95v-72h-95v-168h-80v168h-346v71l331 466h95v-465zM120 240h259v363z" />
    <glyph glyph-name="five" unicode="5" horiz-adv-x="562" 
d="M490 634h-330l-28 -239q31 29 75.5 46.5t90.5 17.5q106 0 169 -68.5t63 -165.5q0 -95 -66 -168t-184 -73q-109 0 -174.5 64t-73.5 147l79 18q4 -67 49.5 -112.5t119.5 -45.5t121 48t47 121q0 72 -44 119.5t-118 47.5q-49 0 -90.5 -23.5t-68.5 -64.5l-76 29l45 373h394
v-71z" />
    <glyph glyph-name="six" unicode="6" horiz-adv-x="563" 
d="M357 705l-150 -279q41 21 93 21q106 0 169 -68.5t63 -159.5q0 -92 -66 -163.5t-178 -71.5q-111 0 -177 70.5t-66 160.5q0 34 9.5 68t19 55t30.5 61l164 306h89zM290 380q-73 0 -118 -48.5t-45 -114.5q0 -65 44 -113.5t117 -48.5t117.5 48.5t44.5 114.5t-43.5 114
t-116.5 48z" />
    <glyph glyph-name="seven" unicode="7" horiz-adv-x="492" 
d="M487 644l-260 -644h-85l255 634h-313v-100h-79v171h482v-61z" />
    <glyph glyph-name="eight" unicode="8" horiz-adv-x="590" 
d="M295 721q109 0 168 -55t59 -127q0 -102 -106 -163q53 -22 92.5 -68.5t39.5 -115.5q0 -88 -67 -148t-186 -60q-120 0 -186.5 60t-66.5 148q0 69 39.5 115.5t92.5 68.5q-106 61 -106 163q0 72 59 127t168 55zM295 650q-63 0 -104 -32t-41 -85q0 -52 40 -88.5t105 -36.5
t105 36.5t40 88.5q0 53 -41 85t-104 32zM295 339q-77 0 -124 -39t-47 -102t45 -103t126 -40t126 40t45 103t-47 102t-124 39z" />
    <glyph glyph-name="nine" unicode="9" horiz-adv-x="568" 
d="M280 721q111 0 177 -70.5t66 -160.5q0 -79 -59 -184l-171 -306h-88l154 276q-39 -20 -88 -20q-107 0 -170.5 69t-63.5 161t65.5 163.5t177.5 71.5zM280 650q-73 0 -117 -48.5t-44 -114.5t43.5 -114t115.5 -48q73 0 118 48.5t45 114.5q0 65 -44 113.5t-117 48.5z" />
    <glyph glyph-name="A" unicode="A" horiz-adv-x="684" 
d="M684 0h-89l-75 178h-356l-75 -178h-89l305 705h74zM192 249h300l-150 354z" />
    <glyph glyph-name="B" unicode="B" horiz-adv-x="670" 
d="M85 705h286q94 0 150 -51t56 -127q0 -47 -25.5 -87t-62.5 -62q65 -21 102 -70t37 -112q0 -79 -61 -137.5t-168 -58.5h-314v705zM167 634v-230h203q56 0 91.5 31.5t35.5 82.5q0 53 -36 84.5t-96 31.5h-198zM167 332v-261h222q72 0 114.5 33.5t42.5 97.5q0 63 -41.5 96.5
t-113.5 33.5h-224z" />
    <glyph glyph-name="C" unicode="C" horiz-adv-x="778" 
d="M407 721q113 0 202.5 -60t126.5 -173l-75 -23q-31 90 -98 136t-157 46q-122 0 -201.5 -83t-79.5 -211t79.5 -211.5t201.5 -83.5q90 0 157 46t98 136l75 -23q-37 -113 -126.5 -173t-202.5 -60q-163 0 -264 107.5t-101 261.5q0 153 101 260.5t264 107.5z" />
    <glyph glyph-name="D" unicode="D" horiz-adv-x="733" 
d="M85 705h256q82 0 149.5 -30t110.5 -80t66.5 -112.5t23.5 -129.5q0 -142 -95 -247.5t-255 -105.5h-256v705zM167 634v-563l168 1q120 0 196.5 78t76.5 203t-76.5 203t-196.5 78h-168z" />
    <glyph glyph-name="E" unicode="E" horiz-adv-x="627" 
d="M569 634h-402v-231h342v-71h-342v-261h402v-71h-484v705h484v-71z" />
    <glyph glyph-name="F" unicode="F" horiz-adv-x="604" 
d="M569 634h-402v-231h342v-71h-342v-332h-82v705h484v-71z" />
    <glyph glyph-name="G" unicode="G" horiz-adv-x="822" 
d="M407 721q109 0 197 -56t128 -166l-75 -24q-33 85 -99 128.5t-152 43.5q-122 0 -201.5 -83t-79.5 -211t79.5 -211.5t199.5 -83.5q116 0 185.5 69.5t78.5 170.5h-292v71h361v-372h-54l-16 125q-41 -69 -111 -103.5t-152 -34.5q-161 0 -261.5 107.5t-100.5 261.5
q0 153 101 260.5t264 107.5z" />
    <glyph glyph-name="H" unicode="H" horiz-adv-x="739" 
d="M654 0h-82v325h-405v-325h-82v705h82v-309h405v309h82v-705z" />
    <glyph glyph-name="I" unicode="I" horiz-adv-x="252" 
d="M167 0h-82v705h82v-705z" />
    <glyph glyph-name="J" unicode="J" horiz-adv-x="337" 
d="M272 705v-560q0 -89 -70.5 -136t-171.5 -7l19 66q61 -22 101 2.5t40 84.5v479h-139v71h221z" />
    <glyph glyph-name="K" unicode="K" horiz-adv-x="666" 
d="M351 427l300 -427h-99l-257 366l-128 -133v-233h-82v705h82v-357l342 357h105z" />
    <glyph glyph-name="L" unicode="L" horiz-adv-x="554" 
d="M167 71h362v-71h-444v705h82v-634z" />
    <glyph glyph-name="M" unicode="M" horiz-adv-x="914" 
d="M829 0h-82v518l-264 -518h-52l-264 518v-518h-82v705h70l302 -592l302 592h70v-705z" />
    <glyph glyph-name="N" unicode="N" horiz-adv-x="752" 
d="M667 0h-69l-431 563v-563h-82v705h70l430 -563v563h82v-705z" />
    <glyph glyph-name="O" unicode="O" horiz-adv-x="819" 
d="M410 721q162 0 265 -107.5t103 -260.5t-103 -261t-265 -108t-265 108t-103 261t103 260.5t265 107.5zM410 647q-122 0 -203.5 -83.5t-81.5 -210.5t82 -211t203 -84t202.5 83.5t81.5 211.5q0 127 -81.5 210.5t-202.5 83.5z" />
    <glyph glyph-name="P" unicode="P" horiz-adv-x="697" 
d="M85 705h351q105 0 162 -55.5t57 -137.5t-57 -137.5t-162 -55.5h-269v-319h-82v705zM167 634v-244h268q64 0 101 33.5t37 88.5t-37 88.5t-101 33.5h-268z" />
    <glyph glyph-name="Q" unicode="Q" horiz-adv-x="819" 
d="M410 721q162 0 265 -107.5t103 -260.5q0 -83 -33 -156.5t-92 -123.5l79 -111l-58 -43l-81 111q-82 -46 -183 -46q-162 0 -265 108t-103 261t103 260.5t265 107.5zM410 647q-122 0 -203.5 -83.5t-81.5 -210.5t82 -211t203 -84q74 0 138 36l-187 257h91l153 -212
q89 81 89 214q0 127 -81.5 210.5t-202.5 83.5z" />
    <glyph glyph-name="R" unicode="R" horiz-adv-x="713" 
d="M85 705h296q105 0 162 -55.5t57 -137.5q0 -66 -40.5 -115t-115.5 -67l227 -330h-97l-219 319h-188v-319h-82v705zM167 634v-244h213q64 0 101 33.5t37 88.5t-37 88.5t-101 33.5h-213z" />
    <glyph glyph-name="S" unicode="S" horiz-adv-x="630" 
d="M318 721q91 0 161 -44t107 -127l-73 -27q-59 127 -196 127q-69 0 -114 -31.5t-45 -83.5q0 -37 24.5 -62.5t63.5 -39t86 -24.5t94 -25.5t86 -36t63.5 -61.5t24.5 -97q0 -93 -75.5 -149t-186.5 -56q-105 0 -186.5 51t-116.5 155l74 27q27 -80 87.5 -121t143.5 -41
q77 0 127.5 35.5t50.5 95.5q0 58 -45.5 91t-110 48.5t-129.5 33.5t-110.5 61t-45.5 116q0 79 68.5 132t172.5 53z" />
    <glyph glyph-name="T" unicode="T" horiz-adv-x="537" 
d="M524 634h-215v-634h-82v634h-214v71h511v-71z" />
    <glyph glyph-name="U" unicode="U" horiz-adv-x="751" 
d="M666 705v-443q0 -52 -15.5 -99t-48 -88t-91 -65.5t-135.5 -24.5q-62 0 -112.5 16.5t-83.5 43.5t-54.5 63.5t-31 74.5t-9.5 79v443h82v-437q0 -98 53 -155t156 -57q102 0 155 57t53 155v437h82z" />
    <glyph glyph-name="V" unicode="V" horiz-adv-x="687" 
d="M381 0h-76l-295 705h89l244 -590l245 590h89z" />
    <glyph glyph-name="W" unicode="W" horiz-adv-x="965" 
d="M728 0h-80l-166 526l-166 -526h-79l-227 705h86l182 -573l182 573h44l182 -573l182 573h87z" />
    <glyph glyph-name="X" unicode="X" horiz-adv-x="688" 
d="M394 363l284 -363h-100l-234 296l-233 -296h-101l284 363l-268 342h101l217 -275l217 275h101z" />
    <glyph glyph-name="Y" unicode="Y" horiz-adv-x="667" 
d="M374 297v-297h-82v297l-282 408h98l225 -328l225 328h99z" />
    <glyph glyph-name="Z" unicode="Z" horiz-adv-x="620" 
d="M563 643l-416 -572h431v-71h-536v62l416 572h-407v71h512v-62z" />
    <glyph glyph-name="a" unicode="a" horiz-adv-x="581" 
d="M267 464q54 0 101.5 -26t74.5 -70l12 81h58v-449h-58l-12 80q-27 -43 -75 -69.5t-101 -26.5q-100 0 -165 70t-65 170t65 170t165 70zM276 397q-71 0 -116 -50t-45 -123t45 -123t116 -50q70 0 115 49.5t45 123.5t-45 123.5t-115 49.5z" />
    <glyph glyph-name="b" unicode="b" horiz-adv-x="588" 
d="M153 705v-327q30 39 75 62.5t97 23.5q98 0 162 -69t64 -171t-64 -171t-162 -69q-54 0 -102 26t-78 70l-13 -80h-57v705h78zM316 397q-70 0 -117 -49t-47 -124t47 -124t117 -49t113.5 49.5t43.5 123.5t-43.5 123.5t-113.5 49.5z" />
    <glyph glyph-name="c" unicode="c" horiz-adv-x="533" 
d="M278 464q79 0 137 -43t81 -117l-73 -17q-16 50 -53.5 80t-93.5 30q-68 0 -114.5 -47.5t-46.5 -125.5t46.5 -125.5t114.5 -47.5q56 0 93.5 30t53.5 80l73 -17q-23 -74 -81 -117t-137 -43q-106 0 -173.5 69.5t-67.5 170.5t67.5 170.5t173.5 69.5z" />
    <glyph glyph-name="d" unicode="d" horiz-adv-x="588" 
d="M513 0h-58l-12 80q-27 -43 -75 -69.5t-101 -26.5q-100 0 -165 70t-65 170t65 170t165 70q50 0 95.5 -23.5t72.5 -62.5v327h78v-705zM276 397q-72 0 -116.5 -50t-44.5 -123t44.5 -123t116.5 -50q70 0 115 50t45 123t-45 123t-115 50z" />
    <glyph glyph-name="e" unicode="e" horiz-adv-x="542" 
d="M279 464q91 0 159 -64t68 -174l-2 -20h-388q4 -70 49.5 -113.5t111.5 -43.5q51 0 88 26.5t56 70.5l66 -30q-28 -61 -82.5 -96.5t-124.5 -35.5q-107 0 -175 69.5t-68 170.5q0 100 68 170t174 70zM277 402q-61 0 -105 -39t-52 -100h307q-7 62 -49 100.5t-101 38.5z" />
    <glyph glyph-name="f" unicode="f" horiz-adv-x="368" 
d="M358 695l-23 -64l-30 10q-49 17 -79.5 -5.5t-30.5 -65.5v-121h157v-67h-157v-382h-78v382h-107v67h107v124q0 86 63 126t147 8z" />
    <glyph glyph-name="g" unicode="g" horiz-adv-x="582" 
d="M268 464q54 0 101.5 -25t74.5 -68l12 78h58v-447q0 -107 -62 -175.5t-181 -68.5q-92 0 -159.5 53.5t-74.5 157.5l74 14q2 -78 49 -118t114 -40q84 0 123 49t39 117v98q-28 -38 -73 -60.5t-95 -22.5q-100 0 -165 66t-65 164q0 97 65 162.5t165 65.5zM277 397
q-71 0 -116 -46t-45 -115q0 -70 45 -116.5t116 -46.5q69 0 114.5 46.5t45.5 116.5t-45.5 115.5t-114.5 45.5z" />
    <glyph glyph-name="h" unicode="h" horiz-adv-x="600" 
d="M153 705v-329q66 88 179 88q90 0 145.5 -58.5t55.5 -150.5v-255h-78v248q0 70 -37.5 109.5t-103.5 39.5q-63 0 -112 -46.5t-49 -119.5v-231h-78v705h78z" />
    <glyph glyph-name="i" unicode="i" horiz-adv-x="259" 
d="M130 618q23 0 39 -16t16 -40q0 -23 -16 -38.5t-39 -15.5t-39 15.5t-16 38.5q0 24 16 40t39 16zM170 0h-78v449h78v-449z" />
    <glyph glyph-name="j" unicode="j" horiz-adv-x="257" 
d="M135 618q23 0 39.5 -16t16.5 -40q0 -23 -16.5 -38.5t-39.5 -15.5t-39 15.5t-16 38.5q0 24 16 40t39 16zM175 449v-543q0 -85 -63.5 -125.5t-146.5 -8.5l-32 12l24 64l30 -10q49 -17 79.5 5.5t30.5 65.5v540h78z" />
    <glyph glyph-name="k" unicode="k" horiz-adv-x="548" 
d="M153 205l250 244h96l-181 -180l222 -269h-94l-180 216l-113 -110v-106h-78v705h78v-500z" />
    <glyph glyph-name="l" unicode="l" 
d="M153 0h-78v705h78v-705z" />
    <glyph glyph-name="m" unicode="m" horiz-adv-x="914" 
d="M662 464q83 0 134 -52t51 -146v-266h-78v262q0 66 -32.5 100.5t-92.5 34.5q-59 0 -101.5 -44.5t-42.5 -116.5v-236h-78v262q0 66 -33 100.5t-92 34.5t-101.5 -44.5t-42.5 -116.5v-236h-78v449h57l13 -78q30 43 75 68t95 25q62 0 104.5 -29.5t62.5 -78.5q28 50 77.5 79
t102.5 29z" />
    <glyph glyph-name="n" unicode="n" horiz-adv-x="600" 
d="M332 464q90 0 145.5 -58.5t55.5 -150.5v-255h-78v248q0 70 -37.5 109.5t-103.5 39.5q-63 0 -112 -46.5t-49 -119.5v-231h-78v449h57l13 -81q71 96 187 96z" />
    <glyph glyph-name="o" unicode="o" horiz-adv-x="557" 
d="M278 464q107 0 174.5 -69.5t67.5 -170.5t-67.5 -170.5t-174.5 -69.5t-174 69.5t-67 170.5t67 170.5t174 69.5zM278 397q-70 0 -116.5 -49t-46.5 -124q0 -76 46.5 -124.5t116.5 -48.5t117 48.5t47 124.5q0 75 -47 124t-117 49z" />
    <glyph glyph-name="p" unicode="p" horiz-adv-x="588" 
d="M325 464q98 0 162 -69t64 -171t-64 -171t-162 -69q-52 0 -97 23.5t-75 62.5v-290h-78v669h57l13 -81q30 45 78 70.5t102 25.5zM316 397q-70 0 -117 -49t-47 -124t47 -124t117 -49t113.5 49.5t43.5 123.5t-43.5 123.5t-113.5 49.5z" />
    <glyph glyph-name="q" unicode="q" horiz-adv-x="581" 
d="M267 464q54 0 101.5 -26t74.5 -70l12 81h58v-669h-78v290q-27 -39 -72.5 -62.5t-95.5 -23.5q-100 0 -165 70.5t-65 169.5q0 100 65 170t165 70zM276 397q-72 0 -116.5 -50t-44.5 -123t44.5 -123t116.5 -50q70 0 115 50t45 123t-45 123t-115 50z" />
    <glyph glyph-name="r" unicode="r" horiz-adv-x="393" 
d="M373 450l-24 -67q-82 30 -139 -14t-57 -127v-242h-78v449h57l13 -74q31 54 91.5 76.5t136.5 -1.5z" />
    <glyph glyph-name="s" unicode="s" horiz-adv-x="454" 
d="M231 464q130 0 193 -100l-62 -30q-19 33 -54 53t-76 20q-40 0 -69 -16t-29 -45q0 -21 20.5 -36t42 -22t64.5 -17q89 -23 131 -56.5t42 -95.5q0 -56 -51 -95.5t-136 -39.5q-73 0 -131.5 34t-83.5 91l63 30q20 -44 61 -70t93 -26q46 0 76.5 20.5t30.5 52.5q0 37 -30 55
t-100 35q-82 21 -125.5 52t-43.5 85q0 50 47.5 85.5t126.5 35.5z" />
    <glyph glyph-name="t" unicode="t" horiz-adv-x="407" 
d="M201 449h161v-67h-161v-246q0 -43 31 -65.5t80 -5.5l29 10l24 -64l-32 -13q-83 -32 -146.5 8.5t-63.5 125.5v250h-106v67h106v142h78v-142z" />
    <glyph glyph-name="u" unicode="u" horiz-adv-x="608" 
d="M533 0h-57l-13 80q-71 -96 -187 -96q-90 0 -145.5 58.5t-55.5 151.5v255h78v-248q0 -71 37.5 -110.5t103.5 -39.5q63 0 112 47t49 120v231h78v-449z" />
    <glyph glyph-name="v" unicode="v" horiz-adv-x="514" 
d="M290 0h-65l-215 449h86l161 -348l162 348h85z" />
    <glyph glyph-name="w" unicode="w" horiz-adv-x="715" 
d="M544 0h-69l-117 329l-118 -329h-68l-162 449h79l120 -333l119 333h59l119 -333l120 333h79z" />
    <glyph glyph-name="x" unicode="x" horiz-adv-x="474" 
d="M283 229l181 -229h-91l-136 169l-136 -169h-91l182 229l-175 220h91l130 -160l128 160h91z" />
    <glyph glyph-name="y" unicode="y" horiz-adv-x="521" 
d="M191 -220h-83l118 247l-216 422h86l172 -340l159 340h84z" />
    <glyph glyph-name="z" unicode="z" horiz-adv-x="460" 
d="M427 400l-296 -333h309v-67h-420v50l295 332h-281v67h393v-49z" />
    <glyph glyph-name="uni00A0" unicode="&#xa0;" horiz-adv-x="230" 
 />
    <glyph glyph-name="Agrave" unicode="&#xc0;" horiz-adv-x="684" 
d="M684 0h-89l-75 178h-356l-75 -178h-89l305 705h74zM192 249h300l-150 354z" />
    <glyph glyph-name="Aacute" unicode="&#xc1;" horiz-adv-x="684" 
d="M684 0h-89l-75 178h-356l-75 -178h-89l305 705h74zM192 249h300l-150 354z" />
    <glyph glyph-name="Acircumflex" unicode="&#xc2;" horiz-adv-x="684" 
d="M684 0h-89l-75 178h-356l-75 -178h-89l305 705h74zM192 249h300l-150 354z" />
    <glyph glyph-name="Atilde" unicode="&#xc3;" horiz-adv-x="684" 
d="M684 0h-89l-75 178h-356l-75 -178h-89l305 705h74zM192 249h300l-150 354z" />
    <glyph glyph-name="Adieresis" unicode="&#xc4;" horiz-adv-x="684" 
d="M684 0h-89l-75 178h-356l-75 -178h-89l305 705h74zM192 249h300l-150 354z" />
    <glyph glyph-name="Aring" unicode="&#xc5;" horiz-adv-x="684" 
d="M684 0h-89l-75 178h-356l-75 -178h-89l305 705h74zM192 249h300l-150 354z" />
    <glyph glyph-name="Ccedilla" unicode="&#xc7;" horiz-adv-x="778" 
d="M407 721q113 0 202.5 -60t126.5 -173l-75 -23q-31 90 -98 136t-157 46q-122 0 -201.5 -83t-79.5 -211t79.5 -211.5t201.5 -83.5q90 0 157 46t98 136l75 -23q-37 -113 -126.5 -173t-202.5 -60q-163 0 -264 107.5t-101 261.5q0 153 101 260.5t264 107.5z" />
    <glyph glyph-name="Egrave" unicode="&#xc8;" horiz-adv-x="627" 
d="M569 634h-402v-231h342v-71h-342v-261h402v-71h-484v705h484v-71z" />
    <glyph glyph-name="Eacute" unicode="&#xc9;" horiz-adv-x="627" 
d="M569 634h-402v-231h342v-71h-342v-261h402v-71h-484v705h484v-71z" />
    <glyph glyph-name="Ecircumflex" unicode="&#xca;" horiz-adv-x="627" 
d="M569 634h-402v-231h342v-71h-342v-261h402v-71h-484v705h484v-71z" />
    <glyph glyph-name="Edieresis" unicode="&#xcb;" horiz-adv-x="627" 
d="M569 634h-402v-231h342v-71h-342v-261h402v-71h-484v705h484v-71z" />
    <glyph glyph-name="Igrave" unicode="&#xcc;" horiz-adv-x="252" 
d="M167 0h-82v705h82v-705z" />
    <glyph glyph-name="Iacute" unicode="&#xcd;" horiz-adv-x="252" 
d="M167 0h-82v705h82v-705z" />
    <glyph glyph-name="Icircumflex" unicode="&#xce;" horiz-adv-x="251" 
d="M166 0h-82v705h82v-705z" />
    <glyph glyph-name="Idieresis" unicode="&#xcf;" horiz-adv-x="252" 
d="M167 0h-82v705h82v-705z" />
    <glyph glyph-name="Ntilde" unicode="&#xd1;" horiz-adv-x="752" 
d="M667 0h-69l-431 563v-563h-82v705h70l430 -563v563h82v-705z" />
    <glyph glyph-name="Ograve" unicode="&#xd2;" horiz-adv-x="819" 
d="M410 721q162 0 265 -107.5t103 -260.5t-103 -261t-265 -108t-265 108t-103 261t103 260.5t265 107.5zM410 647q-122 0 -203.5 -83.5t-81.5 -210.5t82 -211t203 -84t202.5 83.5t81.5 211.5q0 127 -81.5 210.5t-202.5 83.5z" />
    <glyph glyph-name="Oacute" unicode="&#xd3;" horiz-adv-x="819" 
d="M410 721q162 0 265 -107.5t103 -260.5t-103 -261t-265 -108t-265 108t-103 261t103 260.5t265 107.5zM410 647q-122 0 -203.5 -83.5t-81.5 -210.5t82 -211t203 -84t202.5 83.5t81.5 211.5q0 127 -81.5 210.5t-202.5 83.5z" />
    <glyph glyph-name="Ocircumflex" unicode="&#xd4;" horiz-adv-x="819" 
d="M410 721q162 0 265 -107.5t103 -260.5t-103 -261t-265 -108t-265 108t-103 261t103 260.5t265 107.5zM410 647q-122 0 -203.5 -83.5t-81.5 -210.5t82 -211t203 -84t202.5 83.5t81.5 211.5q0 127 -81.5 210.5t-202.5 83.5z" />
    <glyph glyph-name="Otilde" unicode="&#xd5;" horiz-adv-x="819" 
d="M410 721q162 0 265 -107.5t103 -260.5t-103 -261t-265 -108t-265 108t-103 261t103 260.5t265 107.5zM410 647q-122 0 -203.5 -83.5t-81.5 -210.5t82 -211t203 -84t202.5 83.5t81.5 211.5q0 127 -81.5 210.5t-202.5 83.5z" />
    <glyph glyph-name="Odieresis" unicode="&#xd6;" horiz-adv-x="819" 
d="M410 721q162 0 265 -107.5t103 -260.5t-103 -261t-265 -108t-265 108t-103 261t103 260.5t265 107.5zM410 647q-122 0 -203.5 -83.5t-81.5 -210.5t82 -211t203 -84t202.5 83.5t81.5 211.5q0 127 -81.5 210.5t-202.5 83.5z" />
    <glyph glyph-name="Oslash" unicode="&#xd8;" horiz-adv-x="819" 
d="M410 721q162 0 265 -107.5t103 -260.5t-103 -261t-265 -108t-265 108t-103 261t103 260.5t265 107.5zM410 647q-122 0 -203.5 -83.5t-81.5 -210.5t82 -211t203 -84t202.5 83.5t81.5 211.5q0 127 -81.5 210.5t-202.5 83.5z" />
    <glyph glyph-name="Ugrave" unicode="&#xd9;" horiz-adv-x="751" 
d="M666 705v-443q0 -52 -15.5 -99t-48 -88t-91 -65.5t-135.5 -24.5q-62 0 -112.5 16.5t-83.5 43.5t-54.5 63.5t-31 74.5t-9.5 79v443h82v-437q0 -98 53 -155t156 -57q102 0 155 57t53 155v437h82z" />
    <glyph glyph-name="Uacute" unicode="&#xda;" horiz-adv-x="751" 
d="M666 705v-443q0 -52 -15.5 -99t-48 -88t-91 -65.5t-135.5 -24.5q-62 0 -112.5 16.5t-83.5 43.5t-54.5 63.5t-31 74.5t-9.5 79v443h82v-437q0 -98 53 -155t156 -57q102 0 155 57t53 155v437h82z" />
    <glyph glyph-name="Ucircumflex" unicode="&#xdb;" horiz-adv-x="751" 
d="M666 705v-443q0 -52 -15.5 -99t-48 -88t-91 -65.5t-135.5 -24.5q-62 0 -112.5 16.5t-83.5 43.5t-54.5 63.5t-31 74.5t-9.5 79v443h82v-437q0 -98 53 -155t156 -57q102 0 155 57t53 155v437h82z" />
    <glyph glyph-name="Udieresis" unicode="&#xdc;" horiz-adv-x="751" 
d="M666 705v-443q0 -52 -15.5 -99t-48 -88t-91 -65.5t-135.5 -24.5q-62 0 -112.5 16.5t-83.5 43.5t-54.5 63.5t-31 74.5t-9.5 79v443h82v-437q0 -98 53 -155t156 -57q102 0 155 57t53 155v437h82z" />
    <glyph glyph-name="Yacute" unicode="&#xdd;" horiz-adv-x="667" 
d="M374 297v-297h-82v297l-282 408h98l225 -328l225 328h99z" />
    <glyph glyph-name="agrave" unicode="&#xe0;" horiz-adv-x="581" 
d="M267 464q54 0 101.5 -26t74.5 -70l12 81h58v-449h-58l-12 80q-27 -43 -75 -69.5t-101 -26.5q-100 0 -165 70t-65 170t65 170t165 70zM276 397q-71 0 -116 -50t-45 -123t45 -123t116 -50q70 0 115 49.5t45 123.5t-45 123.5t-115 49.5z" />
    <glyph glyph-name="aacute" unicode="&#xe1;" horiz-adv-x="581" 
d="M267 464q54 0 101.5 -26t74.5 -70l12 81h58v-449h-58l-12 80q-27 -43 -75 -69.5t-101 -26.5q-100 0 -165 70t-65 170t65 170t165 70zM276 397q-71 0 -116 -50t-45 -123t45 -123t116 -50q70 0 115 49.5t45 123.5t-45 123.5t-115 49.5z" />
    <glyph glyph-name="acircumflex" unicode="&#xe2;" horiz-adv-x="581" 
d="M267 464q54 0 101.5 -26t74.5 -70l12 81h58v-449h-58l-12 80q-27 -43 -75 -69.5t-101 -26.5q-100 0 -165 70t-65 170t65 170t165 70zM276 397q-71 0 -116 -50t-45 -123t45 -123t116 -50q70 0 115 49.5t45 123.5t-45 123.5t-115 49.5z" />
    <glyph glyph-name="atilde" unicode="&#xe3;" horiz-adv-x="581" 
d="M267 464q54 0 101.5 -26t74.5 -70l12 81h58v-449h-58l-12 80q-27 -43 -75 -69.5t-101 -26.5q-100 0 -165 70t-65 170t65 170t165 70zM276 397q-71 0 -116 -50t-45 -123t45 -123t116 -50q70 0 115 49.5t45 123.5t-45 123.5t-115 49.5z" />
    <glyph glyph-name="adieresis" unicode="&#xe4;" horiz-adv-x="581" 
d="M267 464q54 0 101.5 -26t74.5 -70l12 81h58v-449h-58l-12 80q-27 -43 -75 -69.5t-101 -26.5q-100 0 -165 70t-65 170t65 170t165 70zM276 397q-71 0 -116 -50t-45 -123t45 -123t116 -50q70 0 115 49.5t45 123.5t-45 123.5t-115 49.5z" />
    <glyph glyph-name="aring" unicode="&#xe5;" horiz-adv-x="581" 
d="M267 464q54 0 101.5 -26t74.5 -70l12 81h58v-449h-58l-12 80q-27 -43 -75 -69.5t-101 -26.5q-100 0 -165 70t-65 170t65 170t165 70zM276 397q-71 0 -116 -50t-45 -123t45 -123t116 -50q70 0 115 49.5t45 123.5t-45 123.5t-115 49.5z" />
    <glyph glyph-name="ccedilla" unicode="&#xe7;" horiz-adv-x="533" 
d="M278 464q79 0 137 -43t81 -117l-73 -17q-16 50 -53.5 80t-93.5 30q-68 0 -114.5 -47.5t-46.5 -125.5t46.5 -125.5t114.5 -47.5q56 0 93.5 30t53.5 80l73 -17q-23 -74 -81 -117t-137 -43q-106 0 -173.5 69.5t-67.5 170.5t67.5 170.5t173.5 69.5z" />
    <glyph glyph-name="egrave" unicode="&#xe8;" horiz-adv-x="542" 
d="M279 464q91 0 159 -64t68 -174l-2 -20h-388q4 -70 49.5 -113.5t111.5 -43.5q51 0 88 26.5t56 70.5l66 -30q-28 -61 -82.5 -96.5t-124.5 -35.5q-107 0 -175 69.5t-68 170.5q0 100 68 170t174 70zM277 402q-61 0 -105 -39t-52 -100h307q-7 62 -49 100.5t-101 38.5z" />
    <glyph glyph-name="eacute" unicode="&#xe9;" horiz-adv-x="542" 
d="M279 464q91 0 159 -64t68 -174l-2 -20h-388q4 -70 49.5 -113.5t111.5 -43.5q51 0 88 26.5t56 70.5l66 -30q-28 -61 -82.5 -96.5t-124.5 -35.5q-107 0 -175 69.5t-68 170.5q0 100 68 170t174 70zM277 402q-61 0 -105 -39t-52 -100h307q-7 62 -49 100.5t-101 38.5z" />
    <glyph glyph-name="ecircumflex" unicode="&#xea;" horiz-adv-x="542" 
d="M279 464q91 0 159 -64t68 -174l-2 -20h-388q4 -70 49.5 -113.5t111.5 -43.5q51 0 88 26.5t56 70.5l66 -30q-28 -61 -82.5 -96.5t-124.5 -35.5q-107 0 -175 69.5t-68 170.5q0 100 68 170t174 70zM277 402q-61 0 -105 -39t-52 -100h307q-7 62 -49 100.5t-101 38.5z" />
    <glyph glyph-name="edieresis" unicode="&#xeb;" horiz-adv-x="542" 
d="M279 464q91 0 159 -64t68 -174l-2 -20h-388q4 -70 49.5 -113.5t111.5 -43.5q51 0 88 26.5t56 70.5l66 -30q-28 -61 -82.5 -96.5t-124.5 -35.5q-107 0 -175 69.5t-68 170.5q0 100 68 170t174 70zM277 402q-61 0 -105 -39t-52 -100h307q-7 62 -49 100.5t-101 38.5z" />
    <glyph glyph-name="igrave" unicode="&#xec;" 
d="M153 0h-78v449h78v-449z" />
    <glyph glyph-name="iacute" unicode="&#xed;" 
d="M153 0h-78v449h78v-449z" />
    <glyph glyph-name="icircumflex" unicode="&#xee;" 
d="M153 0h-78v449h78v-449z" />
    <glyph glyph-name="idieresis" unicode="&#xef;" 
d="M153 0h-78v449h78v-449z" />
    <glyph glyph-name="ntilde" unicode="&#xf1;" horiz-adv-x="600" 
d="M332 464q90 0 145.5 -58.5t55.5 -150.5v-255h-78v248q0 70 -37.5 109.5t-103.5 39.5q-63 0 -112 -46.5t-49 -119.5v-231h-78v449h57l13 -81q71 96 187 96z" />
    <glyph glyph-name="ograve" unicode="&#xf2;" horiz-adv-x="557" 
d="M278 464q107 0 174.5 -69.5t67.5 -170.5t-67.5 -170.5t-174.5 -69.5t-174 69.5t-67 170.5t67 170.5t174 69.5zM278 397q-70 0 -116.5 -49t-46.5 -124q0 -76 46.5 -124.5t116.5 -48.5t117 48.5t47 124.5q0 75 -47 124t-117 49z" />
    <glyph glyph-name="oacute" unicode="&#xf3;" horiz-adv-x="557" 
d="M278 464q107 0 174.5 -69.5t67.5 -170.5t-67.5 -170.5t-174.5 -69.5t-174 69.5t-67 170.5t67 170.5t174 69.5zM278 397q-70 0 -116.5 -49t-46.5 -124q0 -76 46.5 -124.5t116.5 -48.5t117 48.5t47 124.5q0 75 -47 124t-117 49z" />
    <glyph glyph-name="ocircumflex" unicode="&#xf4;" horiz-adv-x="557" 
d="M278 464q107 0 174.5 -69.5t67.5 -170.5t-67.5 -170.5t-174.5 -69.5t-174 69.5t-67 170.5t67 170.5t174 69.5zM278 397q-70 0 -116.5 -49t-46.5 -124q0 -76 46.5 -124.5t116.5 -48.5t117 48.5t47 124.5q0 75 -47 124t-117 49z" />
    <glyph glyph-name="otilde" unicode="&#xf5;" horiz-adv-x="557" 
d="M278 464q107 0 174.5 -69.5t67.5 -170.5t-67.5 -170.5t-174.5 -69.5t-174 69.5t-67 170.5t67 170.5t174 69.5zM278 397q-70 0 -116.5 -49t-46.5 -124q0 -76 46.5 -124.5t116.5 -48.5t117 48.5t47 124.5q0 75 -47 124t-117 49z" />
    <glyph glyph-name="odieresis" unicode="&#xf6;" horiz-adv-x="557" 
d="M278 464q107 0 174.5 -69.5t67.5 -170.5t-67.5 -170.5t-174.5 -69.5t-174 69.5t-67 170.5t67 170.5t174 69.5zM278 397q-70 0 -116.5 -49t-46.5 -124q0 -76 46.5 -124.5t116.5 -48.5t117 48.5t47 124.5q0 75 -47 124t-117 49z" />
    <glyph glyph-name="oslash" unicode="&#xf8;" horiz-adv-x="557" 
d="M-94 -157q-37 0 -59.5 23t-22.5 58t22.5 58t59.5 23q36 0 59 -23.5t23 -57.5t-23 -57.5t-59 -23.5zM-94 -135q23 0 39 17t16 42t-16 42t-39 17q-24 0 -40 -17t-16 -42t16 -42t40 -17z" />
    <glyph glyph-name="ugrave" unicode="&#xf9;" horiz-adv-x="608" 
d="M533 0h-57l-13 80q-71 -96 -187 -96q-90 0 -145.5 58.5t-55.5 151.5v255h78v-248q0 -71 37.5 -110.5t103.5 -39.5q63 0 112 47t49 120v231h78v-449z" />
    <glyph glyph-name="uacute" unicode="&#xfa;" horiz-adv-x="608" 
d="M533 0h-57l-13 80q-71 -96 -187 -96q-90 0 -145.5 58.5t-55.5 151.5v255h78v-248q0 -71 37.5 -110.5t103.5 -39.5q63 0 112 47t49 120v231h78v-449z" />
    <glyph glyph-name="ucircumflex" unicode="&#xfb;" horiz-adv-x="608" 
d="M533 0h-57l-13 80q-71 -96 -187 -96q-90 0 -145.5 58.5t-55.5 151.5v255h78v-248q0 -71 37.5 -110.5t103.5 -39.5q63 0 112 47t49 120v231h78v-449z" />
    <glyph glyph-name="udieresis" unicode="&#xfc;" horiz-adv-x="608" 
d="M533 0h-57l-13 80q-71 -96 -187 -96q-90 0 -145.5 58.5t-55.5 151.5v255h78v-248q0 -71 37.5 -110.5t103.5 -39.5q63 0 112 47t49 120v231h78v-449z" />
    <glyph glyph-name="yacute" unicode="&#xfd;" horiz-adv-x="521" 
d="M191 -220h-83l118 247l-216 422h86l172 -340l159 340h84z" />
    <glyph glyph-name="ydieresis" unicode="&#xff;" horiz-adv-x="521" 
d="M191 -220h-83l118 247l-216 422h86l172 -340l159 340h84z" />
    <glyph glyph-name="Amacron" unicode="&#x100;" horiz-adv-x="684" 
d="M684 0h-89l-75 178h-356l-75 -178h-89l305 705h74zM192 249h300l-150 354z" />
    <glyph glyph-name="amacron" unicode="&#x101;" horiz-adv-x="581" 
d="M267 464q54 0 101.5 -26t74.5 -70l12 81h58v-449h-58l-12 80q-27 -43 -75 -69.5t-101 -26.5q-100 0 -165 70t-65 170t65 170t165 70zM276 397q-71 0 -116 -50t-45 -123t45 -123t116 -50q70 0 115 49.5t45 123.5t-45 123.5t-115 49.5z" />
    <glyph glyph-name="Abreve" unicode="&#x102;" horiz-adv-x="684" 
d="M684 0h-89l-75 178h-356l-75 -178h-89l305 705h74zM192 249h300l-150 354z" />
    <glyph glyph-name="abreve" unicode="&#x103;" horiz-adv-x="581" 
d="M267 464q54 0 101.5 -26t74.5 -70l12 81h58v-449h-58l-12 80q-27 -43 -75 -69.5t-101 -26.5q-100 0 -165 70t-65 170t65 170t165 70zM276 397q-71 0 -116 -50t-45 -123t45 -123t116 -50q70 0 115 49.5t45 123.5t-45 123.5t-115 49.5z" />
    <glyph glyph-name="Aogonek" unicode="&#x104;" horiz-adv-x="684" 
d="M684 0h-89l-75 178h-356l-75 -178h-89l305 705h74zM192 249h300l-150 354z" />
    <glyph glyph-name="aogonek" unicode="&#x105;" horiz-adv-x="581" 
d="M267 464q54 0 101.5 -26t74.5 -70l12 81h58v-449h-58l-12 80q-27 -43 -75 -69.5t-101 -26.5q-100 0 -165 70t-65 170t65 170t165 70zM276 397q-71 0 -116 -50t-45 -123t45 -123t116 -50q70 0 115 49.5t45 123.5t-45 123.5t-115 49.5z" />
    <glyph glyph-name="Cacute" unicode="&#x106;" horiz-adv-x="778" 
d="M407 721q113 0 202.5 -60t126.5 -173l-75 -23q-31 90 -98 136t-157 46q-122 0 -201.5 -83t-79.5 -211t79.5 -211.5t201.5 -83.5q90 0 157 46t98 136l75 -23q-37 -113 -126.5 -173t-202.5 -60q-163 0 -264 107.5t-101 261.5q0 153 101 260.5t264 107.5z" />
    <glyph glyph-name="cacute" unicode="&#x107;" horiz-adv-x="533" 
d="M278 464q79 0 137 -43t81 -117l-73 -17q-16 50 -53.5 80t-93.5 30q-68 0 -114.5 -47.5t-46.5 -125.5t46.5 -125.5t114.5 -47.5q56 0 93.5 30t53.5 80l73 -17q-23 -74 -81 -117t-137 -43q-106 0 -173.5 69.5t-67.5 170.5t67.5 170.5t173.5 69.5z" />
    <glyph glyph-name="Ccircumflex" unicode="&#x108;" horiz-adv-x="778" 
d="M407 721q113 0 202.5 -60t126.5 -173l-75 -23q-31 90 -98 136t-157 46q-122 0 -201.5 -83t-79.5 -211t79.5 -211.5t201.5 -83.5q90 0 157 46t98 136l75 -23q-37 -113 -126.5 -173t-202.5 -60q-163 0 -264 107.5t-101 261.5q0 153 101 260.5t264 107.5z" />
    <glyph glyph-name="ccircumflex" unicode="&#x109;" horiz-adv-x="533" 
d="M278 464q79 0 137 -43t81 -117l-73 -17q-16 50 -53.5 80t-93.5 30q-68 0 -114.5 -47.5t-46.5 -125.5t46.5 -125.5t114.5 -47.5q56 0 93.5 30t53.5 80l73 -17q-23 -74 -81 -117t-137 -43q-106 0 -173.5 69.5t-67.5 170.5t67.5 170.5t173.5 69.5z" />
    <glyph glyph-name="Cdotaccent" unicode="&#x10a;" horiz-adv-x="778" 
d="M407 721q113 0 202.5 -60t126.5 -173l-75 -23q-31 90 -98 136t-157 46q-122 0 -201.5 -83t-79.5 -211t79.5 -211.5t201.5 -83.5q90 0 157 46t98 136l75 -23q-37 -113 -126.5 -173t-202.5 -60q-163 0 -264 107.5t-101 261.5q0 153 101 260.5t264 107.5z" />
    <glyph glyph-name="cdotaccent" unicode="&#x10b;" horiz-adv-x="533" 
d="M278 464q79 0 137 -43t81 -117l-73 -17q-16 50 -53.5 80t-93.5 30q-68 0 -114.5 -47.5t-46.5 -125.5t46.5 -125.5t114.5 -47.5q56 0 93.5 30t53.5 80l73 -17q-23 -74 -81 -117t-137 -43q-106 0 -173.5 69.5t-67.5 170.5t67.5 170.5t173.5 69.5z" />
    <glyph glyph-name="Ccaron" unicode="&#x10c;" horiz-adv-x="778" 
d="M407 721q113 0 202.5 -60t126.5 -173l-75 -23q-31 90 -98 136t-157 46q-122 0 -201.5 -83t-79.5 -211t79.5 -211.5t201.5 -83.5q90 0 157 46t98 136l75 -23q-37 -113 -126.5 -173t-202.5 -60q-163 0 -264 107.5t-101 261.5q0 153 101 260.5t264 107.5z" />
    <glyph glyph-name="ccaron" unicode="&#x10d;" horiz-adv-x="533" 
d="M278 464q79 0 137 -43t81 -117l-73 -17q-16 50 -53.5 80t-93.5 30q-68 0 -114.5 -47.5t-46.5 -125.5t46.5 -125.5t114.5 -47.5q56 0 93.5 30t53.5 80l73 -17q-23 -74 -81 -117t-137 -43q-106 0 -173.5 69.5t-67.5 170.5t67.5 170.5t173.5 69.5z" />
    <glyph glyph-name="Dcaron" unicode="&#x10e;" horiz-adv-x="733" 
d="M85 705h256q82 0 149.5 -30t110.5 -80t66.5 -112.5t23.5 -129.5q0 -142 -95 -247.5t-255 -105.5h-256v705zM167 634v-563l168 1q120 0 196.5 78t76.5 203t-76.5 203t-196.5 78h-168z" />
    <glyph glyph-name="dcaron" unicode="&#x10f;" horiz-adv-x="588" 
d="M513 0h-58l-12 80q-27 -43 -75 -69.5t-101 -26.5q-100 0 -165 70t-65 170t65 170t165 70q50 0 95.5 -23.5t72.5 -62.5v327h78v-705zM276 397q-72 0 -116.5 -50t-44.5 -123t44.5 -123t116.5 -50q70 0 115 50t45 123t-45 123t-115 50z" />
    <glyph glyph-name="Dcroat" unicode="&#x110;" horiz-adv-x="733" 
d="M85 705h256q82 0 149.5 -30t110.5 -80t66.5 -112.5t23.5 -129.5q0 -142 -95 -247.5t-255 -105.5h-256v705zM167 634v-563l168 1q120 0 196.5 78t76.5 203t-76.5 203t-196.5 78h-168z" />
    <glyph glyph-name="dcroat" unicode="&#x111;" horiz-adv-x="588" 
d="M513 0h-58l-12 80q-27 -43 -75 -69.5t-101 -26.5q-100 0 -165 70t-65 170t65 170t165 70q50 0 95.5 -23.5t72.5 -62.5v327h78v-705zM276 397q-72 0 -116.5 -50t-44.5 -123t44.5 -123t116.5 -50q70 0 115 50t45 123t-45 123t-115 50z" />
    <glyph glyph-name="Emacron" unicode="&#x112;" horiz-adv-x="627" 
d="M569 634h-402v-231h342v-71h-342v-261h402v-71h-484v705h484v-71z" />
    <glyph glyph-name="emacron" unicode="&#x113;" horiz-adv-x="542" 
d="M279 464q91 0 159 -64t68 -174l-2 -20h-388q4 -70 49.5 -113.5t111.5 -43.5q51 0 88 26.5t56 70.5l66 -30q-28 -61 -82.5 -96.5t-124.5 -35.5q-107 0 -175 69.5t-68 170.5q0 100 68 170t174 70zM277 402q-61 0 -105 -39t-52 -100h307q-7 62 -49 100.5t-101 38.5z" />
    <glyph glyph-name="Ebreve" unicode="&#x114;" horiz-adv-x="627" 
d="M569 634h-402v-231h342v-71h-342v-261h402v-71h-484v705h484v-71z" />
    <glyph glyph-name="ebreve" unicode="&#x115;" horiz-adv-x="542" 
d="M279 464q91 0 159 -64t68 -174l-2 -20h-388q4 -70 49.5 -113.5t111.5 -43.5q51 0 88 26.5t56 70.5l66 -30q-28 -61 -82.5 -96.5t-124.5 -35.5q-107 0 -175 69.5t-68 170.5q0 100 68 170t174 70zM277 402q-61 0 -105 -39t-52 -100h307q-7 62 -49 100.5t-101 38.5z" />
    <glyph glyph-name="Edotaccent" unicode="&#x116;" horiz-adv-x="627" 
d="M569 634h-402v-231h342v-71h-342v-261h402v-71h-484v705h484v-71z" />
    <glyph glyph-name="edotaccent" unicode="&#x117;" horiz-adv-x="542" 
d="M279 464q91 0 159 -64t68 -174l-2 -20h-388q4 -70 49.5 -113.5t111.5 -43.5q51 0 88 26.5t56 70.5l66 -30q-28 -61 -82.5 -96.5t-124.5 -35.5q-107 0 -175 69.5t-68 170.5q0 100 68 170t174 70zM277 402q-61 0 -105 -39t-52 -100h307q-7 62 -49 100.5t-101 38.5z" />
    <glyph glyph-name="Eogonek" unicode="&#x118;" horiz-adv-x="627" 
d="M569 634h-402v-231h342v-71h-342v-261h402v-71h-484v705h484v-71z" />
    <glyph glyph-name="eogonek" unicode="&#x119;" horiz-adv-x="542" 
d="M279 464q91 0 159 -64t68 -174l-2 -20h-388q4 -70 49.5 -113.5t111.5 -43.5q51 0 88 26.5t56 70.5l66 -30q-28 -61 -82.5 -96.5t-124.5 -35.5q-107 0 -175 69.5t-68 170.5q0 100 68 170t174 70zM277 402q-61 0 -105 -39t-52 -100h307q-7 62 -49 100.5t-101 38.5z" />
    <glyph glyph-name="Ecaron" unicode="&#x11a;" horiz-adv-x="627" 
d="M569 634h-402v-231h342v-71h-342v-261h402v-71h-484v705h484v-71z" />
    <glyph glyph-name="ecaron" unicode="&#x11b;" horiz-adv-x="542" 
d="M279 464q91 0 159 -64t68 -174l-2 -20h-388q4 -70 49.5 -113.5t111.5 -43.5q51 0 88 26.5t56 70.5l66 -30q-28 -61 -82.5 -96.5t-124.5 -35.5q-107 0 -175 69.5t-68 170.5q0 100 68 170t174 70zM277 402q-61 0 -105 -39t-52 -100h307q-7 62 -49 100.5t-101 38.5z" />
    <glyph glyph-name="Gcircumflex" unicode="&#x11c;" horiz-adv-x="822" 
d="M407 721q109 0 197 -56t128 -166l-75 -24q-33 85 -99 128.5t-152 43.5q-122 0 -201.5 -83t-79.5 -211t79.5 -211.5t199.5 -83.5q116 0 185.5 69.5t78.5 170.5h-292v71h361v-372h-54l-16 125q-41 -69 -111 -103.5t-152 -34.5q-161 0 -261.5 107.5t-100.5 261.5
q0 153 101 260.5t264 107.5z" />
    <glyph glyph-name="gcircumflex" unicode="&#x11d;" horiz-adv-x="582" 
d="M268 464q54 0 101.5 -25t74.5 -68l12 78h58v-447q0 -107 -62 -175.5t-181 -68.5q-92 0 -159.5 53.5t-74.5 157.5l74 14q2 -78 49 -118t114 -40q84 0 123 49t39 117v98q-28 -38 -73 -60.5t-95 -22.5q-100 0 -165 66t-65 164q0 97 65 162.5t165 65.5zM277 397
q-71 0 -116 -46t-45 -115q0 -70 45 -116.5t116 -46.5q69 0 114.5 46.5t45.5 116.5t-45.5 115.5t-114.5 45.5z" />
    <glyph glyph-name="Gbreve" unicode="&#x11e;" horiz-adv-x="822" 
d="M407 721q109 0 197 -56t128 -166l-75 -24q-33 85 -99 128.5t-152 43.5q-122 0 -201.5 -83t-79.5 -211t79.5 -211.5t199.5 -83.5q116 0 185.5 69.5t78.5 170.5h-292v71h361v-372h-54l-16 125q-41 -69 -111 -103.5t-152 -34.5q-161 0 -261.5 107.5t-100.5 261.5
q0 153 101 260.5t264 107.5z" />
    <glyph glyph-name="gbreve" unicode="&#x11f;" horiz-adv-x="582" 
d="M268 464q54 0 101.5 -25t74.5 -68l12 78h58v-447q0 -107 -62 -175.5t-181 -68.5q-92 0 -159.5 53.5t-74.5 157.5l74 14q2 -78 49 -118t114 -40q84 0 123 49t39 117v98q-28 -38 -73 -60.5t-95 -22.5q-100 0 -165 66t-65 164q0 97 65 162.5t165 65.5zM277 397
q-71 0 -116 -46t-45 -115q0 -70 45 -116.5t116 -46.5q69 0 114.5 46.5t45.5 116.5t-45.5 115.5t-114.5 45.5z" />
    <glyph glyph-name="Gdotaccent" unicode="&#x120;" horiz-adv-x="822" 
d="M407 721q109 0 197 -56t128 -166l-75 -24q-33 85 -99 128.5t-152 43.5q-122 0 -201.5 -83t-79.5 -211t79.5 -211.5t199.5 -83.5q116 0 185.5 69.5t78.5 170.5h-292v71h361v-372h-54l-16 125q-41 -69 -111 -103.5t-152 -34.5q-161 0 -261.5 107.5t-100.5 261.5
q0 153 101 260.5t264 107.5z" />
    <glyph glyph-name="gdotaccent" unicode="&#x121;" horiz-adv-x="582" 
d="M268 464q54 0 101.5 -25t74.5 -68l12 78h58v-447q0 -107 -62 -175.5t-181 -68.5q-92 0 -159.5 53.5t-74.5 157.5l74 14q2 -78 49 -118t114 -40q84 0 123 49t39 117v98q-28 -38 -73 -60.5t-95 -22.5q-100 0 -165 66t-65 164q0 97 65 162.5t165 65.5zM277 397
q-71 0 -116 -46t-45 -115q0 -70 45 -116.5t116 -46.5q69 0 114.5 46.5t45.5 116.5t-45.5 115.5t-114.5 45.5z" />
    <glyph glyph-name="Gcommaaccent" unicode="&#x122;" horiz-adv-x="822" 
d="M407 721q109 0 197 -56t128 -166l-75 -24q-33 85 -99 128.5t-152 43.5q-122 0 -201.5 -83t-79.5 -211t79.5 -211.5t199.5 -83.5q116 0 185.5 69.5t78.5 170.5h-292v71h361v-372h-54l-16 125q-41 -69 -111 -103.5t-152 -34.5q-161 0 -261.5 107.5t-100.5 261.5
q0 153 101 260.5t264 107.5z" />
    <glyph glyph-name="gcommaaccent" unicode="&#x123;" horiz-adv-x="582" 
d="M268 464q54 0 101.5 -25t74.5 -68l12 78h58v-447q0 -107 -62 -175.5t-181 -68.5q-92 0 -159.5 53.5t-74.5 157.5l74 14q2 -78 49 -118t114 -40q84 0 123 49t39 117v98q-28 -38 -73 -60.5t-95 -22.5q-100 0 -165 66t-65 164q0 97 65 162.5t165 65.5zM277 397
q-71 0 -116 -46t-45 -115q0 -70 45 -116.5t116 -46.5q69 0 114.5 46.5t45.5 116.5t-45.5 115.5t-114.5 45.5z" />
    <glyph glyph-name="Hcircumflex" unicode="&#x124;" horiz-adv-x="739" 
d="M654 0h-82v325h-405v-325h-82v705h82v-309h405v309h82v-705z" />
    <glyph glyph-name="hcircumflex" unicode="&#x125;" horiz-adv-x="600" 
d="M153 705v-329q66 88 179 88q90 0 145.5 -58.5t55.5 -150.5v-255h-78v248q0 70 -37.5 109.5t-103.5 39.5q-63 0 -112 -46.5t-49 -119.5v-231h-78v705h78z" />
    <glyph glyph-name="Hbar" unicode="&#x126;" horiz-adv-x="739" 
d="M654 0h-82v325h-405v-325h-82v705h82v-309h405v309h82v-705z" />
    <glyph glyph-name="hbar" unicode="&#x127;" horiz-adv-x="600" 
d="M153 705v-329q66 88 179 88q90 0 145.5 -58.5t55.5 -150.5v-255h-78v248q0 70 -37.5 109.5t-103.5 39.5q-63 0 -112 -46.5t-49 -119.5v-231h-78v705h78z" />
    <glyph glyph-name="Itilde" unicode="&#x128;" horiz-adv-x="252" 
d="M167 0h-82v705h82v-705z" />
    <glyph glyph-name="itilde" unicode="&#x129;" 
d="M153 0h-78v449h78v-449z" />
    <glyph glyph-name="Imacron" unicode="&#x12a;" horiz-adv-x="252" 
d="M167 0h-82v705h82v-705z" />
    <glyph glyph-name="imacron" unicode="&#x12b;" 
d="M153 0h-78v449h78v-449z" />
    <glyph glyph-name="Ibreve" unicode="&#x12c;" horiz-adv-x="252" 
d="M167 0h-82v705h82v-705z" />
    <glyph glyph-name="ibreve" unicode="&#x12d;" 
d="M153 0h-78v449h78v-449z" />
    <glyph glyph-name="Iogonek" unicode="&#x12e;" horiz-adv-x="252" 
d="M167 0h-82v705h82v-705z" />
    <glyph glyph-name="iogonek" unicode="&#x12f;" 
d="M153 0h-78v449h78v-449z" />
    <glyph glyph-name="Idotaccent" unicode="&#x130;" horiz-adv-x="252" 
d="M167 0h-82v705h82v-705z" />
    <glyph glyph-name="dotlessi" unicode="&#x131;" 
d="M153 0h-78v449h78v-449z" />
    <glyph glyph-name="Jcircumflex" unicode="&#x134;" horiz-adv-x="337" 
d="M272 705v-560q0 -89 -70.5 -136t-171.5 -7l19 66q61 -22 101 2.5t40 84.5v479h-139v71h221z" />
    <glyph glyph-name="jcircumflex" unicode="&#x135;" horiz-adv-x="242" 
d="M175 449v-543q0 -85 -62 -125t-148 -9l-32 11l24 65l30 -10q49 -17 79.5 6t30.5 67v538h78z" />
    <glyph glyph-name="Kcommaaccent" unicode="&#x136;" horiz-adv-x="666" 
d="M351 427l300 -427h-99l-257 366l-128 -133v-233h-82v705h82v-357l342 357h105z" />
    <glyph glyph-name="kcommaaccent" unicode="&#x137;" horiz-adv-x="548" 
d="M153 205l250 244h96l-181 -180l222 -269h-94l-180 216l-113 -110v-106h-78v705h78v-500z" />
    <glyph glyph-name="Lacute" unicode="&#x139;" horiz-adv-x="554" 
d="M167 71h362v-71h-444v705h82v-634z" />
    <glyph glyph-name="lacute" unicode="&#x13a;" 
d="M153 0h-78v705h78v-705z" />
    <glyph glyph-name="Lcommaaccent" unicode="&#x13b;" horiz-adv-x="554" 
d="M167 71h362v-71h-444v705h82v-634z" />
    <glyph glyph-name="lcommaaccent" unicode="&#x13c;" 
d="M153 0h-78v705h78v-705z" />
    <glyph glyph-name="Lcaron" unicode="&#x13d;" horiz-adv-x="554" 
d="M167 71h362v-71h-444v705h82v-634z" />
    <glyph glyph-name="lcaron" unicode="&#x13e;" 
d="M153 0h-78v705h78v-705z" />
    <glyph glyph-name="Ldot" unicode="&#x13f;" horiz-adv-x="554" 
d="M167 71h362v-71h-444v705h82v-634z" />
    <glyph glyph-name="ldot" unicode="&#x140;" 
d="M153 0h-78v705h78v-705z" />
    <glyph glyph-name="Lslash" unicode="&#x141;" horiz-adv-x="554" 
d="M167 71h362v-71h-444v705h82v-634z" />
    <glyph glyph-name="lslash" unicode="&#x142;" 
d="M153 0h-78v705h78v-705z" />
    <glyph glyph-name="Nacute" unicode="&#x143;" horiz-adv-x="752" 
d="M667 0h-69l-431 563v-563h-82v705h70l430 -563v563h82v-705z" />
    <glyph glyph-name="nacute" unicode="&#x144;" horiz-adv-x="600" 
d="M332 464q90 0 145.5 -58.5t55.5 -150.5v-255h-78v248q0 70 -37.5 109.5t-103.5 39.5q-63 0 -112 -46.5t-49 -119.5v-231h-78v449h57l13 -81q71 96 187 96z" />
    <glyph glyph-name="Ncommaaccent" unicode="&#x145;" horiz-adv-x="752" 
d="M667 0h-69l-431 563v-563h-82v705h70l430 -563v563h82v-705z" />
    <glyph glyph-name="ncommaaccent" unicode="&#x146;" horiz-adv-x="600" 
d="M332 464q90 0 145.5 -58.5t55.5 -150.5v-255h-78v248q0 70 -37.5 109.5t-103.5 39.5q-63 0 -112 -46.5t-49 -119.5v-231h-78v449h57l13 -81q71 96 187 96z" />
    <glyph glyph-name="Ncaron" unicode="&#x147;" horiz-adv-x="752" 
d="M667 0h-69l-431 563v-563h-82v705h70l430 -563v563h82v-705z" />
    <glyph glyph-name="ncaron" unicode="&#x148;" horiz-adv-x="600" 
d="M332 464q90 0 145.5 -58.5t55.5 -150.5v-255h-78v248q0 70 -37.5 109.5t-103.5 39.5q-63 0 -112 -46.5t-49 -119.5v-231h-78v449h57l13 -81q71 96 187 96z" />
    <glyph glyph-name="Eng" unicode="&#x14a;" horiz-adv-x="752" 
d="M667 0h-69l-431 563v-563h-82v705h70l430 -563v563h82v-705z" />
    <glyph glyph-name="eng" unicode="&#x14b;" horiz-adv-x="600" 
d="M332 464q90 0 145.5 -58.5t55.5 -150.5v-255h-78v248q0 70 -37.5 109.5t-103.5 39.5q-63 0 -112 -46.5t-49 -119.5v-231h-78v449h57l13 -81q71 96 187 96z" />
    <glyph glyph-name="Omacron" unicode="&#x14c;" horiz-adv-x="819" 
d="M410 721q162 0 265 -107.5t103 -260.5t-103 -261t-265 -108t-265 108t-103 261t103 260.5t265 107.5zM410 647q-122 0 -203.5 -83.5t-81.5 -210.5t82 -211t203 -84t202.5 83.5t81.5 211.5q0 127 -81.5 210.5t-202.5 83.5z" />
    <glyph glyph-name="omacron" unicode="&#x14d;" horiz-adv-x="557" 
d="M278 464q107 0 174.5 -69.5t67.5 -170.5t-67.5 -170.5t-174.5 -69.5t-174 69.5t-67 170.5t67 170.5t174 69.5zM278 397q-70 0 -116.5 -49t-46.5 -124q0 -76 46.5 -124.5t116.5 -48.5t117 48.5t47 124.5q0 75 -47 124t-117 49z" />
    <glyph glyph-name="Obreve" unicode="&#x14e;" horiz-adv-x="819" 
d="M410 721q162 0 265 -107.5t103 -260.5t-103 -261t-265 -108t-265 108t-103 261t103 260.5t265 107.5zM410 647q-122 0 -203.5 -83.5t-81.5 -210.5t82 -211t203 -84t202.5 83.5t81.5 211.5q0 127 -81.5 210.5t-202.5 83.5z" />
    <glyph glyph-name="obreve" unicode="&#x14f;" horiz-adv-x="557" 
d="M278 464q107 0 174.5 -69.5t67.5 -170.5t-67.5 -170.5t-174.5 -69.5t-174 69.5t-67 170.5t67 170.5t174 69.5zM278 397q-70 0 -116.5 -49t-46.5 -124q0 -76 46.5 -124.5t116.5 -48.5t117 48.5t47 124.5q0 75 -47 124t-117 49z" />
    <glyph glyph-name="Ohungarumlaut" unicode="&#x150;" horiz-adv-x="819" 
d="M410 721q162 0 265 -107.5t103 -260.5t-103 -261t-265 -108t-265 108t-103 261t103 260.5t265 107.5zM410 647q-122 0 -203.5 -83.5t-81.5 -210.5t82 -211t203 -84t202.5 83.5t81.5 211.5q0 127 -81.5 210.5t-202.5 83.5z" />
    <glyph glyph-name="ohungarumlaut" unicode="&#x151;" horiz-adv-x="557" 
d="M278 464q107 0 174.5 -69.5t67.5 -170.5t-67.5 -170.5t-174.5 -69.5t-174 69.5t-67 170.5t67 170.5t174 69.5zM278 397q-70 0 -116.5 -49t-46.5 -124q0 -76 46.5 -124.5t116.5 -48.5t117 48.5t47 124.5q0 75 -47 124t-117 49z" />
    <glyph glyph-name="Racute" unicode="&#x154;" horiz-adv-x="713" 
d="M85 705h296q105 0 162 -55.5t57 -137.5q0 -66 -40.5 -115t-115.5 -67l227 -330h-97l-219 319h-188v-319h-82v705zM167 634v-244h213q64 0 101 33.5t37 88.5t-37 88.5t-101 33.5h-213z" />
    <glyph glyph-name="racute" unicode="&#x155;" horiz-adv-x="393" 
d="M373 450l-24 -67q-82 30 -139 -14t-57 -127v-242h-78v449h57l13 -74q31 54 91.5 76.5t136.5 -1.5z" />
    <glyph glyph-name="Rcommaaccent" unicode="&#x156;" horiz-adv-x="713" 
d="M85 705h296q105 0 162 -55.5t57 -137.5q0 -66 -40.5 -115t-115.5 -67l227 -330h-97l-219 319h-188v-319h-82v705zM167 634v-244h213q64 0 101 33.5t37 88.5t-37 88.5t-101 33.5h-213z" />
    <glyph glyph-name="rcommaaccent" unicode="&#x157;" horiz-adv-x="393" 
d="M373 450l-24 -67q-82 30 -139 -14t-57 -127v-242h-78v449h57l13 -74q31 54 91.5 76.5t136.5 -1.5z" />
    <glyph glyph-name="Rcaron" unicode="&#x158;" horiz-adv-x="713" 
d="M85 705h296q105 0 162 -55.5t57 -137.5q0 -66 -40.5 -115t-115.5 -67l227 -330h-97l-219 319h-188v-319h-82v705zM167 634v-244h213q64 0 101 33.5t37 88.5t-37 88.5t-101 33.5h-213z" />
    <glyph glyph-name="rcaron" unicode="&#x159;" horiz-adv-x="393" 
d="M373 450l-24 -67q-82 30 -139 -14t-57 -127v-242h-78v449h57l13 -74q31 54 91.5 76.5t136.5 -1.5z" />
    <glyph glyph-name="Sacute" unicode="&#x15a;" horiz-adv-x="630" 
d="M318 721q91 0 161 -44t107 -127l-73 -27q-59 127 -196 127q-69 0 -114 -31.5t-45 -83.5q0 -37 24.5 -62.5t63.5 -39t86 -24.5t94 -25.5t86 -36t63.5 -61.5t24.5 -97q0 -93 -75.5 -149t-186.5 -56q-105 0 -186.5 51t-116.5 155l74 27q27 -80 87.5 -121t143.5 -41
q77 0 127.5 35.5t50.5 95.5q0 58 -45.5 91t-110 48.5t-129.5 33.5t-110.5 61t-45.5 116q0 79 68.5 132t172.5 53z" />
    <glyph glyph-name="sacute" unicode="&#x15b;" horiz-adv-x="454" 
d="M231 464q130 0 193 -100l-62 -30q-19 33 -54 53t-76 20q-40 0 -69 -16t-29 -45q0 -21 20.5 -36t42 -22t64.5 -17q89 -23 131 -56.5t42 -95.5q0 -56 -51 -95.5t-136 -39.5q-73 0 -131.5 34t-83.5 91l63 30q20 -44 61 -70t93 -26q46 0 76.5 20.5t30.5 52.5q0 37 -30 55
t-100 35q-82 21 -125.5 52t-43.5 85q0 50 47.5 85.5t126.5 35.5z" />
    <glyph glyph-name="Scircumflex" unicode="&#x15c;" horiz-adv-x="630" 
d="M318 721q91 0 161 -44t107 -127l-73 -27q-59 127 -196 127q-69 0 -114 -31.5t-45 -83.5q0 -37 24.5 -62.5t63.5 -39t86 -24.5t94 -25.5t86 -36t63.5 -61.5t24.5 -97q0 -93 -75.5 -149t-186.5 -56q-105 0 -186.5 51t-116.5 155l74 27q27 -80 87.5 -121t143.5 -41
q77 0 127.5 35.5t50.5 95.5q0 58 -45.5 91t-110 48.5t-129.5 33.5t-110.5 61t-45.5 116q0 79 68.5 132t172.5 53z" />
    <glyph glyph-name="scircumflex" unicode="&#x15d;" horiz-adv-x="454" 
d="M231 464q130 0 193 -100l-62 -30q-19 33 -54 53t-76 20q-40 0 -69 -16t-29 -45q0 -21 20.5 -36t42 -22t64.5 -17q89 -23 131 -56.5t42 -95.5q0 -56 -51 -95.5t-136 -39.5q-73 0 -131.5 34t-83.5 91l63 30q20 -44 61 -70t93 -26q46 0 76.5 20.5t30.5 52.5q0 37 -30 55
t-100 35q-82 21 -125.5 52t-43.5 85q0 50 47.5 85.5t126.5 35.5z" />
    <glyph glyph-name="Scedilla" unicode="&#x15e;" horiz-adv-x="630" 
d="M318 721q91 0 161 -44t107 -127l-73 -27q-59 127 -196 127q-69 0 -114 -31.5t-45 -83.5q0 -37 24.5 -62.5t63.5 -39t86 -24.5t94 -25.5t86 -36t63.5 -61.5t24.5 -97q0 -93 -75.5 -149t-186.5 -56q-105 0 -186.5 51t-116.5 155l74 27q27 -80 87.5 -121t143.5 -41
q77 0 127.5 35.5t50.5 95.5q0 58 -45.5 91t-110 48.5t-129.5 33.5t-110.5 61t-45.5 116q0 79 68.5 132t172.5 53z" />
    <glyph glyph-name="scedilla" unicode="&#x15f;" horiz-adv-x="454" 
d="M231 464q130 0 193 -100l-62 -30q-19 33 -54 53t-76 20q-40 0 -69 -16t-29 -45q0 -21 20.5 -36t42 -22t64.5 -17q89 -23 131 -56.5t42 -95.5q0 -56 -51 -95.5t-136 -39.5q-73 0 -131.5 34t-83.5 91l63 30q20 -44 61 -70t93 -26q46 0 76.5 20.5t30.5 52.5q0 37 -30 55
t-100 35q-82 21 -125.5 52t-43.5 85q0 50 47.5 85.5t126.5 35.5z" />
    <glyph glyph-name="Scaron" unicode="&#x160;" horiz-adv-x="630" 
d="M318 721q91 0 161 -44t107 -127l-73 -27q-59 127 -196 127q-69 0 -114 -31.5t-45 -83.5q0 -37 24.5 -62.5t63.5 -39t86 -24.5t94 -25.5t86 -36t63.5 -61.5t24.5 -97q0 -93 -75.5 -149t-186.5 -56q-105 0 -186.5 51t-116.5 155l74 27q27 -80 87.5 -121t143.5 -41
q77 0 127.5 35.5t50.5 95.5q0 58 -45.5 91t-110 48.5t-129.5 33.5t-110.5 61t-45.5 116q0 79 68.5 132t172.5 53z" />
    <glyph glyph-name="scaron" unicode="&#x161;" horiz-adv-x="454" 
d="M231 464q130 0 193 -100l-62 -30q-19 33 -54 53t-76 20q-40 0 -69 -16t-29 -45q0 -21 20.5 -36t42 -22t64.5 -17q89 -23 131 -56.5t42 -95.5q0 -56 -51 -95.5t-136 -39.5q-73 0 -131.5 34t-83.5 91l63 30q20 -44 61 -70t93 -26q46 0 76.5 20.5t30.5 52.5q0 37 -30 55
t-100 35q-82 21 -125.5 52t-43.5 85q0 50 47.5 85.5t126.5 35.5z" />
    <glyph glyph-name="Tcedilla" unicode="&#x162;" horiz-adv-x="537" 
d="M524 634h-215v-634h-82v634h-214v71h511v-71z" />
    <glyph glyph-name="tcedilla" unicode="&#x163;" horiz-adv-x="354" 
 />
    <glyph glyph-name="Tcaron" unicode="&#x164;" horiz-adv-x="537" 
d="M524 634h-215v-634h-82v634h-214v71h511v-71z" />
    <glyph glyph-name="tcaron" unicode="&#x165;" horiz-adv-x="407" 
d="M201 449h161v-67h-161v-246q0 -43 31 -65.5t80 -5.5l29 10l24 -64l-32 -13q-83 -32 -146.5 8.5t-63.5 125.5v250h-106v67h106v142h78v-142z" />
    <glyph glyph-name="Tbar" unicode="&#x166;" horiz-adv-x="537" 
d="M524 634h-215v-634h-82v634h-214v71h511v-71z" />
    <glyph glyph-name="tbar" unicode="&#x167;" horiz-adv-x="407" 
d="M201 449h161v-67h-161v-246q0 -43 31 -65.5t80 -5.5l29 10l24 -64l-32 -13q-83 -32 -146.5 8.5t-63.5 125.5v250h-106v67h106v142h78v-142z" />
    <glyph glyph-name="Utilde" unicode="&#x168;" horiz-adv-x="751" 
d="M666 705v-443q0 -52 -15.5 -99t-48 -88t-91 -65.5t-135.5 -24.5q-62 0 -112.5 16.5t-83.5 43.5t-54.5 63.5t-31 74.5t-9.5 79v443h82v-437q0 -98 53 -155t156 -57q102 0 155 57t53 155v437h82z" />
    <glyph glyph-name="utilde" unicode="&#x169;" horiz-adv-x="608" 
d="M533 0h-57l-13 80q-71 -96 -187 -96q-90 0 -145.5 58.5t-55.5 151.5v255h78v-248q0 -71 37.5 -110.5t103.5 -39.5q63 0 112 47t49 120v231h78v-449z" />
    <glyph glyph-name="Umacron" unicode="&#x16a;" horiz-adv-x="751" 
d="M666 705v-443q0 -52 -15.5 -99t-48 -88t-91 -65.5t-135.5 -24.5q-62 0 -112.5 16.5t-83.5 43.5t-54.5 63.5t-31 74.5t-9.5 79v443h82v-437q0 -98 53 -155t156 -57q102 0 155 57t53 155v437h82z" />
    <glyph glyph-name="umacron" unicode="&#x16b;" horiz-adv-x="608" 
d="M535 0h-58l-13 80q-71 -96 -186 -96q-90 0 -145.5 58.5t-56.5 151.5l-1 255h78l1 -248q0 -71 38 -110.5t104 -39.5q63 0 111.5 47t48.5 120l-2 231h78z" />
    <glyph glyph-name="Uring" unicode="&#x16e;" horiz-adv-x="751" 
d="M666 705v-443q0 -52 -15.5 -99t-48 -88t-91 -65.5t-135.5 -24.5q-62 0 -112.5 16.5t-83.5 43.5t-54.5 63.5t-31 74.5t-9.5 79v443h82v-437q0 -98 53 -155t156 -57q102 0 155 57t53 155v437h82z" />
    <glyph glyph-name="uring" unicode="&#x16f;" horiz-adv-x="608" 
d="M533 0h-57l-13 80q-71 -96 -187 -96q-90 0 -145.5 58.5t-55.5 151.5v255h78v-248q0 -71 37.5 -110.5t103.5 -39.5q63 0 112 47t49 120v231h78v-449z" />
    <glyph glyph-name="Uhungarumlaut" unicode="&#x170;" horiz-adv-x="751" 
d="M666 705v-443q0 -52 -15.5 -99t-48 -88t-91 -65.5t-135.5 -24.5q-62 0 -112.5 16.5t-83.5 43.5t-54.5 63.5t-31 74.5t-9.5 79v443h82v-437q0 -98 53 -155t156 -57q102 0 155 57t53 155v437h82z" />
    <glyph glyph-name="uhungarumlaut" unicode="&#x171;" horiz-adv-x="608" 
d="M533 0h-57l-13 80q-71 -96 -187 -96q-90 0 -145.5 58.5t-55.5 151.5v255h78v-248q0 -71 37.5 -110.5t103.5 -39.5q63 0 112 47t49 120v231h78v-449z" />
    <glyph glyph-name="Uogonek" unicode="&#x172;" horiz-adv-x="751" 
d="M666 705v-443q0 -52 -15.5 -99t-48 -88t-91 -65.5t-135.5 -24.5q-62 0 -112.5 16.5t-83.5 43.5t-54.5 63.5t-31 74.5t-9.5 79v443h82v-437q0 -98 53 -155t156 -57q102 0 155 57t53 155v437h82z" />
    <glyph glyph-name="uogonek" unicode="&#x173;" horiz-adv-x="608" 
d="M533 0h-57l-13 80q-71 -96 -187 -96q-90 0 -145.5 58.5t-55.5 151.5v255h78v-248q0 -71 37.5 -110.5t103.5 -39.5q63 0 112 47t49 120v231h78v-449z" />
    <glyph glyph-name="Wcircumflex" unicode="&#x174;" horiz-adv-x="965" 
d="M728 0h-80l-166 526l-166 -526h-79l-227 705h86l182 -573l182 573h44l182 -573l182 573h87z" />
    <glyph glyph-name="wcircumflex" unicode="&#x175;" horiz-adv-x="715" 
d="M544 0h-69l-117 329l-118 -329h-68l-162 449h79l120 -333l119 333h59l119 -333l120 333h79z" />
    <glyph glyph-name="Ycircumflex" unicode="&#x176;" horiz-adv-x="667" 
d="M374 297v-297h-82v297l-282 408h98l225 -328l225 328h99z" />
    <glyph glyph-name="ycircumflex" unicode="&#x177;" horiz-adv-x="521" 
d="M191 -220h-83l118 247l-216 422h86l172 -340l159 340h84z" />
    <glyph glyph-name="Ydieresis" unicode="&#x178;" horiz-adv-x="667" 
d="M374 297v-297h-82v297l-282 408h98l225 -328l225 328h99z" />
    <glyph glyph-name="Zacute" unicode="&#x179;" horiz-adv-x="620" 
d="M563 643l-416 -572h431v-71h-536v62l416 572h-407v71h512v-62z" />
    <glyph glyph-name="zacute" unicode="&#x17a;" horiz-adv-x="460" 
d="M427 400l-296 -333h309v-67h-420v50l295 332h-281v67h393v-49z" />
    <glyph glyph-name="Zdotaccent" unicode="&#x17b;" horiz-adv-x="620" 
d="M563 643l-416 -572h431v-71h-536v62l416 572h-407v71h512v-62z" />
    <glyph glyph-name="zdotaccent" unicode="&#x17c;" horiz-adv-x="460" 
d="M427 400l-296 -333h309v-67h-420v50l295 332h-281v67h393v-49z" />
    <glyph glyph-name="Zcaron" unicode="&#x17d;" horiz-adv-x="620" 
d="M563 643l-416 -572h431v-71h-536v62l416 572h-407v71h512v-62z" />
    <glyph glyph-name="zcaron" unicode="&#x17e;" horiz-adv-x="460" 
d="M427 400l-296 -333h309v-67h-420v50l295 332h-281v67h393v-49z" />
    <glyph glyph-name="Scommaaccent" unicode="&#x218;" horiz-adv-x="630" 
d="M318 721q91 0 161 -44t107 -127l-73 -27q-59 127 -196 127q-69 0 -114 -31.5t-45 -83.5q0 -37 24.5 -62.5t63.5 -39t86 -24.5t94 -25.5t86 -36t63.5 -61.5t24.5 -97q0 -93 -75.5 -149t-186.5 -56q-105 0 -186.5 51t-116.5 155l74 27q27 -80 87.5 -121t143.5 -41
q77 0 127.5 35.5t50.5 95.5q0 58 -45.5 91t-110 48.5t-129.5 33.5t-110.5 61t-45.5 116q0 79 68.5 132t172.5 53z" />
    <glyph glyph-name="scommaaccent" unicode="&#x219;" horiz-adv-x="454" 
d="M231 464q130 0 193 -100l-62 -30q-19 33 -54 53t-76 20q-40 0 -69 -16t-29 -45q0 -21 20.5 -36t42 -22t64.5 -17q89 -23 131 -56.5t42 -95.5q0 -56 -51 -95.5t-136 -39.5q-73 0 -131.5 34t-83.5 91l63 30q20 -44 61 -70t93 -26q46 0 76.5 20.5t30.5 52.5q0 37 -30 55
t-100 35q-82 21 -125.5 52t-43.5 85q0 50 47.5 85.5t126.5 35.5z" />
    <glyph glyph-name="uni021A" unicode="&#x21a;" horiz-adv-x="537" 
d="M524 634h-215v-634h-82v634h-214v71h511v-71z" />
    <glyph glyph-name="uni021B" unicode="&#x21b;" horiz-adv-x="354" 
 />
    <glyph glyph-name="dotlessj" unicode="&#x237;" horiz-adv-x="242" 
d="M175 449v-543q0 -85 -62 -125t-148 -9l-32 11l24 65l30 -10q49 -17 79.5 6t30.5 67v538h78z" />
    <glyph glyph-name="Wgrave" unicode="&#x1e80;" horiz-adv-x="965" 
d="M728 0h-80l-166 526l-166 -526h-79l-227 705h86l182 -573l182 573h44l182 -573l182 573h87z" />
    <glyph glyph-name="wgrave" unicode="&#x1e81;" horiz-adv-x="715" 
d="M544 0h-69l-117 329l-118 -329h-68l-162 449h79l120 -333l119 333h59l119 -333l120 333h79z" />
    <glyph glyph-name="Wacute" unicode="&#x1e82;" horiz-adv-x="965" 
d="M728 0h-80l-166 526l-166 -526h-79l-227 705h86l182 -573l182 573h44l182 -573l182 573h87z" />
    <glyph glyph-name="wacute" unicode="&#x1e83;" horiz-adv-x="715" 
d="M544 0h-69l-117 329l-118 -329h-68l-162 449h79l120 -333l119 333h59l119 -333l120 333h79z" />
    <glyph glyph-name="Wdieresis" unicode="&#x1e84;" horiz-adv-x="965" 
d="M728 0h-80l-166 526l-166 -526h-79l-227 705h86l182 -573l182 573h44l182 -573l182 573h87z" />
    <glyph glyph-name="wdieresis" unicode="&#x1e85;" horiz-adv-x="715" 
d="M544 0h-69l-117 329l-118 -329h-68l-162 449h79l120 -333l119 333h59l119 -333l120 333h79z" />
    <glyph glyph-name="Ygrave" unicode="&#x1ef2;" horiz-adv-x="667" 
d="M374 297v-297h-82v297l-282 408h98l225 -328l225 328h99z" />
    <glyph glyph-name="ygrave" unicode="&#x1ef3;" horiz-adv-x="521" 
d="M191 -220h-83l118 247l-216 422h86l172 -340l159 340h84z" />
    <glyph glyph-name="i.loclTRK" 
d="M153 0h-78v449h78v-449z" />
  </font>
</defs>
</svg>
